<svg xmlns="http://www.w3.org/2000/svg" xmlns:xlink="http://www.w3.org/1999/xlink" id="svg" version="1.1" width="400" height="235.65891472868216" viewBox="0, 0, 400,235.65891472868216"><g id="svgg"><path id="path0" d="M226.282 61.542 C 225.309 61.787,223.421 62.147,222.086 62.344 C 220.751 62.541,219.224 62.923,218.695 63.193 C 218.165 63.463,217.153 63.835,216.446 64.019 C 215.739 64.203,214.719 64.606,214.180 64.915 C 213.641 65.223,212.810 65.598,212.335 65.749 C 211.859 65.900,211.347 66.171,211.197 66.352 C 211.047 66.532,210.410 66.851,209.782 67.060 C 209.154 67.268,208.506 67.600,208.342 67.798 C 208.178 67.995,207.560 68.415,206.968 68.731 C 205.522 69.502,203.515 70.826,201.718 72.195 C 200.903 72.815,199.779 73.664,199.220 74.080 C 196.044 76.450,186.590 85.886,183.843 89.429 C 182.747 90.842,181.210 92.751,180.428 93.671 C 179.645 94.592,178.532 95.991,177.953 96.781 C 176.113 99.291,172.819 103.763,171.299 105.813 C 170.491 106.903,169.246 108.611,168.533 109.609 C 167.820 110.606,166.812 111.987,166.293 112.678 C 165.775 113.368,164.661 114.915,163.819 116.115 C 160.436 120.931,158.141 124.131,157.669 124.691 C 156.767 125.758,155.333 127.798,155.333 128.014 C 155.333 128.466,155.757 128.182,156.689 127.107 C 158.522 124.990,159.045 124.335,159.493 123.596 C 159.739 123.188,160.492 122.234,161.166 121.474 C 161.840 120.715,163.233 118.954,164.261 117.559 C 165.290 116.165,166.650 114.415,167.285 113.670 C 167.919 112.925,168.939 111.626,169.551 110.784 C 170.748 109.135,172.084 107.422,175.317 103.387 C 176.447 101.976,177.637 100.478,177.961 100.057 C 183.429 92.958,193.608 82.354,198.549 78.610 C 199.629 77.791,200.462 77.150,202.411 75.636 C 204.419 74.076,208.448 71.470,209.648 70.956 C 210.212 70.714,210.740 70.408,210.821 70.276 C 210.903 70.144,211.555 69.817,212.272 69.549 C 212.988 69.281,213.861 68.860,214.212 68.613 C 214.563 68.366,215.274 68.097,215.793 68.015 C 216.311 67.932,217.078 67.687,217.497 67.470 C 218.555 66.921,219.074 67.380,218.312 68.191 C 217.772 68.765,217.619 69.534,218.044 69.534 C 218.428 69.534,219.682 68.838,219.682 68.624 C 219.682 68.519,220.292 68.148,221.037 67.799 C 221.783 67.450,223.277 66.688,224.358 66.106 C 227.148 64.604,230.224 64.275,236.535 64.802 C 243.011 65.343,252.123 70.119,251.636 72.716 C 251.499 73.447,251.516 73.464,252.723 73.742 C 253.398 73.898,254.300 74.293,254.730 74.620 C 255.159 74.948,255.516 75.184,255.524 75.145 C 255.531 75.106,255.569 74.657,255.608 74.147 C 255.658 73.480,255.852 73.082,256.301 72.724 C 257.126 72.066,257.087 71.892,256.114 71.892 C 254.752 71.892,254.170 71.517,251.381 68.844 C 248.822 66.391,246.966 65.019,245.138 64.230 C 242.696 63.175,242.517 62.729,244.148 61.766 C 245.143 61.178,243.690 61.057,235.946 61.077 C 229.038 61.095,227.828 61.154,226.282 61.542 M126.100 64.596 C 126.092 66.379,125.687 68.580,125.193 69.529 C 124.933 70.027,124.601 70.895,124.455 71.458 C 124.310 72.021,124.004 72.746,123.777 73.070 C 123.550 73.394,123.178 74.131,122.950 74.707 C 122.723 75.282,122.339 76.031,122.097 76.371 C 121.856 76.710,121.585 77.300,121.497 77.681 C 121.408 78.062,120.957 79.222,120.495 80.259 C 119.004 83.605,119.255 89.527,120.955 91.122 L 121.688 91.809 121.533 90.584 C 121.335 89.024,122.110 85.166,122.891 83.815 C 123.198 83.286,123.584 82.428,123.749 81.909 C 123.914 81.391,124.258 80.668,124.514 80.304 C 124.769 79.940,125.135 79.041,125.327 78.306 C 125.519 77.572,125.920 76.544,126.219 76.022 C 126.518 75.501,126.836 74.437,126.927 73.659 C 127.018 72.882,127.253 71.614,127.449 70.843 C 127.854 69.255,127.765 68.195,127.020 65.691 C 126.388 63.567,126.106 63.232,126.100 64.596 M164.545 66.803 C 164.116 67.246,163.837 67.723,163.924 67.864 C 164.237 68.370,165.006 68.117,165.471 67.354 C 166.393 65.841,165.813 65.496,164.545 66.803 M272.481 69.063 C 272.157 69.167,271.383 69.262,270.761 69.275 C 270.140 69.288,268.973 69.450,268.169 69.635 C 265.052 70.351,261.446 70.568,260.413 70.103 C 259.332 69.615,259.055 69.820,259.049 71.110 C 259.046 71.647,259.175 71.901,259.502 72.005 C 259.754 72.085,260.281 72.516,260.674 72.964 C 261.544 73.955,261.487 73.955,262.061 72.982 L 262.530 72.187 265.325 72.284 C 274.577 72.605,277.822 72.850,280.024 73.398 C 281.255 73.704,283.377 74.033,284.738 74.129 C 286.099 74.226,287.849 74.495,288.627 74.729 C 290.314 75.235,292.102 75.577,294.103 75.775 C 294.911 75.856,296.397 76.168,297.404 76.469 C 298.411 76.771,299.924 77.089,300.767 77.176 C 303.285 77.436,304.573 77.791,306.187 78.667 C 307.676 79.474,307.756 79.491,309.016 79.238 C 310.354 78.969,311.091 79.065,312.966 79.754 C 313.519 79.956,314.792 80.189,315.795 80.270 C 316.798 80.351,318.945 80.720,320.566 81.090 C 322.186 81.460,324.626 81.829,325.987 81.909 C 328.247 82.042,329.782 82.220,335.298 82.986 C 337.468 83.287,346.609 83.150,348.615 82.786 C 349.328 82.656,351.302 82.337,353.002 82.076 C 354.701 81.816,356.398 81.444,356.773 81.252 C 357.148 81.059,358.151 80.686,359.003 80.424 C 361.155 79.761,363.655 78.020,362.454 78.020 C 362.287 78.020,361.220 78.345,360.083 78.741 C 356.559 79.970,340.510 79.954,335.786 78.717 C 334.778 78.453,332.505 78.090,330.736 77.912 C 328.967 77.733,327.201 77.461,326.812 77.307 C 326.423 77.153,324.947 76.829,323.531 76.587 C 321.427 76.227,320.840 76.034,320.315 75.531 C 319.696 74.938,319.554 74.912,316.524 74.848 C 313.768 74.790,313.113 74.694,311.255 74.079 C 310.088 73.692,308.375 73.307,307.447 73.223 C 306.520 73.139,305.088 72.857,304.265 72.595 C 303.443 72.333,301.656 71.959,300.295 71.764 C 298.933 71.569,297.201 71.197,296.444 70.937 C 295.687 70.677,293.937 70.356,292.555 70.224 C 291.172 70.092,289.246 69.838,288.273 69.659 C 287.301 69.480,285.863 69.220,285.077 69.080 C 283.446 68.791,273.372 68.778,272.481 69.063 M160.940 72.918 C 159.705 74.296,159.075 75.128,158.397 76.275 C 158.073 76.823,157.385 77.891,156.869 78.648 C 155.887 80.087,155.091 81.500,154.035 83.677 C 153.689 84.390,153.259 85.138,153.079 85.339 C 152.900 85.540,152.586 86.176,152.383 86.753 C 152.180 87.330,151.763 88.173,151.456 88.627 C 151.150 89.081,150.822 89.819,150.729 90.268 C 150.636 90.717,150.314 91.459,150.014 91.918 C 149.713 92.377,149.336 93.281,149.176 93.928 C 149.016 94.574,148.585 95.672,148.220 96.368 C 147.854 97.063,147.555 97.837,147.555 98.087 C 147.555 98.338,147.294 99.056,146.976 99.684 C 146.658 100.312,146.271 101.343,146.116 101.975 C 145.961 102.606,145.647 103.501,145.416 103.962 C 145.186 104.424,144.822 105.478,144.608 106.305 C 144.394 107.132,144.027 108.187,143.792 108.648 C 143.558 109.110,143.236 110.124,143.076 110.902 C 142.916 111.679,142.570 112.740,142.307 113.258 C 142.044 113.776,141.685 114.814,141.510 115.564 C 141.335 116.313,140.994 117.321,140.752 117.804 C 140.510 118.286,140.177 119.263,140.012 119.976 C 139.847 120.689,139.475 121.750,139.187 122.334 C 138.898 122.917,138.527 123.978,138.362 124.691 C 138.197 125.404,137.869 126.371,137.634 126.839 C 137.399 127.308,137.081 128.210,136.928 128.843 C 136.775 129.476,136.402 130.499,136.100 131.116 C 135.797 131.734,135.437 132.688,135.300 133.238 C 135.162 133.787,134.795 134.820,134.484 135.533 C 134.173 136.246,133.763 137.307,133.572 137.890 C 133.115 139.289,132.141 141.674,131.308 143.430 C 130.940 144.207,130.559 145.109,130.462 145.433 C 130.365 145.757,130.090 146.300,129.851 146.640 C 129.612 146.979,129.320 147.510,129.201 147.818 C 129.083 148.127,128.629 148.922,128.194 149.585 C 127.758 150.248,127.216 151.096,126.990 151.470 C 126.764 151.845,126.263 152.655,125.878 153.270 C 124.839 154.927,125.514 154.723,127.974 152.637 C 130.923 150.134,134.853 145.419,136.948 141.869 C 137.272 141.320,137.868 140.369,138.272 139.756 C 138.677 139.143,139.124 138.309,139.265 137.902 C 139.407 137.495,139.741 136.856,140.008 136.481 C 140.275 136.107,140.648 135.362,140.837 134.826 C 141.026 134.290,141.379 133.567,141.622 133.220 C 141.866 132.872,142.139 132.269,142.230 131.880 C 142.321 131.491,142.667 130.648,142.998 130.007 C 143.329 129.366,143.757 128.305,143.948 127.650 C 144.138 126.995,144.435 126.239,144.605 125.971 C 144.776 125.703,145.149 124.696,145.433 123.732 C 145.718 122.768,146.141 121.662,146.374 121.273 C 146.607 120.884,146.871 120.088,146.961 119.505 C 147.051 118.922,147.392 117.861,147.718 117.148 C 148.043 116.435,148.454 115.181,148.631 114.361 C 148.807 113.542,149.159 112.534,149.412 112.122 C 149.665 111.710,149.994 110.684,150.143 109.841 C 150.291 108.998,150.614 107.885,150.861 107.366 C 151.107 106.847,151.465 105.678,151.657 104.767 C 151.848 103.857,152.222 102.604,152.488 101.984 C 152.754 101.363,153.078 100.186,153.209 99.368 C 153.340 98.551,153.664 97.390,153.929 96.790 C 154.195 96.190,154.560 94.858,154.740 93.831 C 154.921 92.804,155.279 91.552,155.536 91.049 C 155.792 90.545,156.124 89.462,156.273 88.641 C 156.422 87.819,156.743 86.642,156.987 86.024 C 157.231 85.406,157.603 84.227,157.815 83.405 C 158.027 82.582,158.395 81.591,158.631 81.202 C 158.868 80.813,159.179 80.018,159.324 79.434 C 159.468 78.851,159.847 77.843,160.167 77.195 C 162.325 72.814,162.652 71.006,160.940 72.918 M213.082 72.886 C 208.985 75.736,200.516 84.170,197.263 88.640 C 196.564 89.600,195.757 90.705,195.469 91.097 C 194.799 92.006,192.964 94.746,191.951 96.349 C 190.392 98.817,189.431 100.308,188.956 100.998 C 188.690 101.385,188.223 102.181,187.918 102.766 C 187.613 103.351,186.955 104.520,186.455 105.362 C 185.955 106.205,184.946 107.955,184.212 109.252 C 183.479 110.548,182.410 112.404,181.836 113.377 C 181.263 114.349,180.522 115.675,180.189 116.323 C 179.599 117.474,178.583 119.365,177.025 122.216 C 176.600 122.994,175.565 124.956,174.725 126.576 C 173.884 128.197,172.843 130.159,172.411 130.937 C 171.978 131.715,171.458 132.722,171.255 133.176 C 171.052 133.630,170.732 134.266,170.543 134.590 C 170.354 134.915,169.878 135.807,169.486 136.574 C 169.093 137.341,168.619 138.136,168.433 138.342 C 168.246 138.548,167.986 139.001,167.854 139.348 C 167.722 139.696,167.042 140.862,166.343 141.941 C 165.644 143.019,164.869 144.236,164.622 144.646 C 163.306 146.826,160.921 150.068,159.072 152.190 C 155.267 156.556,157.156 155.922,164.306 150.434 C 165.806 149.283,170.033 144.893,171.482 142.981 C 174.120 139.499,174.778 138.614,175.566 137.485 C 176.876 135.609,178.904 132.409,179.418 131.408 C 179.684 130.890,180.039 130.306,180.207 130.112 C 180.375 129.918,180.853 129.122,181.268 128.344 C 181.684 127.566,182.345 126.346,182.738 125.633 C 183.661 123.959,184.854 121.705,186.607 118.326 C 187.380 116.836,188.130 115.404,188.273 115.144 C 188.417 114.885,188.981 113.718,189.527 112.552 C 190.073 111.385,191.189 109.051,192.006 107.366 C 192.824 105.681,193.610 103.912,193.753 103.437 C 193.896 102.961,194.161 102.449,194.342 102.299 C 194.523 102.149,194.842 101.510,195.052 100.879 C 195.261 100.248,195.624 99.487,195.857 99.188 C 196.091 98.889,196.360 98.379,196.456 98.055 C 196.553 97.731,196.907 96.989,197.245 96.405 C 198.213 94.733,198.854 93.569,199.647 92.045 C 200.051 91.267,200.793 89.941,201.295 89.098 C 201.798 88.256,202.387 87.248,202.605 86.859 C 204.292 83.851,208.229 78.945,212.548 74.469 C 214.993 71.935,215.160 71.440,213.082 72.886 M262.471 77.347 C 262.678 79.346,263.024 80.658,263.299 80.488 C 263.790 80.185,263.184 76.139,262.619 75.951 C 262.383 75.872,262.351 76.180,262.471 77.347 M263.165 83.485 C 262.953 84.174,262.670 86.064,262.537 87.684 C 262.393 89.445,262.108 91.152,261.830 91.927 C 261.574 92.640,261.177 93.913,260.948 94.755 C 260.719 95.598,260.263 96.818,259.935 97.466 C 259.607 98.114,259.266 98.984,259.176 99.400 C 259.086 99.815,258.810 100.412,258.562 100.727 C 258.315 101.042,258.001 101.591,257.866 101.948 C 257.444 103.058,254.808 107.262,253.066 109.605 C 247.615 116.933,243.408 120.917,236.728 125.075 C 235.947 125.562,236.598 125.683,237.922 125.298 C 240.802 124.461,245.851 120.912,249.852 116.912 C 251.619 115.146,255.146 111.044,256.170 109.564 C 257.441 107.725,258.810 105.511,258.810 105.291 C 258.810 105.160,259.060 104.725,259.365 104.324 C 259.670 103.923,260.004 103.329,260.106 103.005 C 260.208 102.681,260.648 101.744,261.083 100.923 C 261.518 100.102,261.874 99.224,261.874 98.971 C 261.874 98.718,262.142 97.982,262.470 97.336 C 262.827 96.630,263.156 95.431,263.292 94.338 C 263.417 93.336,263.620 92.039,263.743 91.456 C 263.866 90.872,264.134 89.599,264.338 88.627 C 265.168 84.664,264.162 80.251,263.165 83.485 M296.283 87.043 C 294.932 87.895,292.913 89.465,292.280 90.155 C 291.956 90.509,291.214 91.122,290.631 91.517 C 289.403 92.349,283.466 98.320,281.166 101.036 C 280.303 102.054,278.922 103.683,278.098 104.655 C 276.526 106.508,275.586 107.721,274.602 109.166 C 274.278 109.642,273.536 110.649,272.952 111.404 C 271.807 112.888,271.624 113.142,270.328 115.057 C 269.857 115.753,268.929 116.849,268.266 117.493 C 267.527 118.209,267.060 118.865,267.060 119.186 C 267.060 119.896,266.680 120.845,266.095 121.594 C 265.829 121.936,265.086 123.011,264.445 123.984 C 260.869 129.404,257.624 134.032,255.941 136.111 C 255.380 136.805,254.549 137.867,254.095 138.471 C 253.642 139.075,252.747 140.226,252.107 141.028 C 250.426 143.134,242.207 151.308,240.542 152.528 C 237.746 154.578,235.117 156.284,233.824 156.888 C 233.371 157.099,232.712 157.477,232.360 157.727 C 232.009 157.976,231.160 158.374,230.475 158.610 C 229.789 158.846,228.805 159.266,228.289 159.543 C 227.772 159.820,227.242 160.048,227.110 160.048 C 226.419 160.052,225.109 160.574,225.244 160.791 C 225.475 161.166,228.284 160.794,229.945 160.169 C 230.728 159.875,231.842 159.555,232.420 159.458 C 232.998 159.362,233.954 159.039,234.544 158.742 C 235.135 158.444,236.232 158.040,236.982 157.844 C 237.733 157.648,238.528 157.324,238.749 157.124 C 238.970 156.923,239.604 156.600,240.157 156.405 C 240.710 156.210,241.469 155.832,241.844 155.565 C 242.218 155.298,242.874 154.963,243.301 154.820 C 243.728 154.678,244.396 154.330,244.785 154.048 C 245.174 153.766,245.969 153.268,246.553 152.941 C 248.824 151.670,249.507 151.259,250.082 150.820 C 250.409 150.570,251.367 149.870,252.210 149.265 C 256.811 145.962,261.062 141.700,263.951 137.495 C 265.410 135.371,265.833 134.710,266.947 132.823 C 267.559 131.786,268.246 130.667,268.474 130.336 C 268.702 130.006,269.159 129.204,269.488 128.554 C 269.817 127.904,270.249 127.237,270.447 127.073 C 270.645 126.909,270.931 126.385,271.084 125.909 C 271.236 125.433,271.613 124.707,271.921 124.294 C 272.229 123.881,272.481 123.463,272.481 123.365 C 272.481 122.986,274.404 120.029,275.059 119.401 C 275.506 118.973,275.804 118.398,275.905 117.767 C 275.990 117.232,276.305 116.423,276.604 115.969 C 276.903 115.516,277.223 114.893,277.314 114.586 C 277.406 114.278,277.807 113.536,278.207 112.936 C 278.606 112.335,279.112 111.574,279.332 111.244 C 279.552 110.913,280.014 110.118,280.358 109.476 C 281.370 107.588,284.495 102.659,285.804 100.884 C 286.139 100.430,286.759 99.582,287.181 98.998 C 289.438 95.881,290.143 94.965,291.444 93.462 C 292.228 92.556,293.842 90.819,295.030 89.602 C 297.650 86.920,298.172 85.852,296.283 87.043 M138.617 99.434 C 138.300 100.026,138.290 100.412,138.593 100.412 C 138.852 100.412,139.197 99.283,138.998 99.085 C 138.929 99.015,138.757 99.172,138.617 99.434 M136.707 102.843 C 136.460 103.402,136.042 104.055,135.778 104.294 C 135.514 104.533,135.298 104.827,135.298 104.948 C 135.298 105.069,134.998 105.609,134.632 106.149 C 133.930 107.184,132.750 109.017,131.458 111.078 C 130.619 112.416,130.442 112.709,129.497 114.319 C 129.154 114.903,128.676 115.645,128.433 115.969 C 128.191 116.293,127.765 116.983,127.487 117.501 C 127.209 118.020,126.393 119.346,125.674 120.448 C 124.956 121.550,123.966 123.088,123.476 123.866 C 122.986 124.643,122.312 125.651,121.978 126.105 C 121.644 126.559,120.978 127.524,120.497 128.251 C 120.016 128.977,119.325 129.932,118.962 130.372 C 118.040 131.488,114.533 135.929,113.980 136.680 C 111.239 140.404,100.961 150.313,97.064 152.992 C 95.935 153.767,94.946 154.507,94.867 154.636 C 94.787 154.765,94.199 155.135,93.560 155.459 C 92.286 156.105,91.987 156.659,93.047 156.411 C 93.882 156.215,97.324 154.460,97.938 153.917 C 98.197 153.688,98.833 153.278,99.352 153.007 C 99.870 152.736,100.719 152.197,101.237 151.810 C 101.756 151.423,102.764 150.691,103.477 150.184 C 110.064 145.497,117.590 137.237,122.839 128.933 C 123.372 128.091,123.994 127.131,124.221 126.801 C 124.449 126.470,124.919 125.675,125.266 125.033 C 125.613 124.391,126.309 123.176,126.812 122.334 C 127.315 121.491,128.010 120.271,128.357 119.623 C 128.704 118.975,129.123 118.285,129.289 118.091 C 129.455 117.896,130.130 116.665,130.790 115.354 C 131.449 114.043,132.150 112.837,132.347 112.673 C 132.544 112.510,132.705 112.241,132.705 112.075 C 132.705 111.910,133.034 111.154,133.437 110.395 C 133.840 109.637,134.304 108.643,134.468 108.188 C 134.632 107.732,135.098 106.836,135.503 106.197 C 135.909 105.558,136.240 104.848,136.240 104.621 C 136.240 104.394,136.506 103.922,136.830 103.572 C 137.154 103.223,137.419 102.855,137.419 102.754 C 137.419 102.654,137.483 102.405,137.562 102.200 C 137.896 101.329,137.118 101.915,136.707 102.843 M288.960 113.055 C 287.735 113.877,286.821 114.989,284.785 118.133 C 284.256 118.950,283.610 119.618,283.124 119.850 C 282.467 120.163,282.358 120.319,282.492 120.751 C 282.956 122.242,282.861 122.653,281.501 125.044 C 278.962 129.510,277.342 132.115,276.955 132.354 C 276.605 132.570,276.678 132.940,277.070 132.940 C 278.032 132.940,283.324 127.210,283.324 126.168 C 283.324 125.580,285.617 121.412,286.195 120.947 C 286.843 120.427,286.884 120.305,286.744 119.289 C 286.623 118.411,286.683 118.077,287.046 117.611 C 287.296 117.292,287.689 116.659,287.921 116.205 C 288.153 115.751,288.910 114.732,289.604 113.940 C 291.406 111.883,291.176 111.567,288.960 113.055 M234.767 126.057 C 233.841 126.195,233.623 126.576,234.470 126.576 C 234.878 126.576,235.281 126.463,235.366 126.325 C 235.571 125.994,235.473 125.951,234.767 126.057 M53.834 139.331 C 51.125 140.763,49.761 143.076,51.626 143.076 C 52.465 143.076,52.820 143.648,53.060 145.387 C 53.478 148.406,55.679 149.245,58.110 147.313 C 59.867 145.917,60.106 145.378,60.106 142.819 L 60.106 140.532 59.255 139.785 C 57.599 138.331,55.982 138.196,53.834 139.331 M195.639 138.891 C 195.315 139.066,194.334 139.511,193.459 139.881 C 191.893 140.543,191.868 140.568,191.868 141.447 C 191.868 141.939,191.762 142.407,191.632 142.487 C 191.340 142.667,191.319 143.547,191.607 143.547 C 191.723 143.547,191.881 143.382,191.959 143.179 C 192.056 142.925,192.339 142.833,192.868 142.884 C 193.683 142.963,193.825 143.236,194.375 145.786 C 194.628 146.959,195.728 147.432,197.745 147.234 C 200.384 146.975,201.822 144.417,201.198 141.091 C 200.853 139.253,197.461 137.911,195.639 138.891 M134.711 160.244 C 133.622 160.425,133.333 161.041,134.135 161.470 C 134.667 161.755,136.350 161.688,139.776 161.247 C 140.748 161.122,141.676 161.013,141.839 161.005 C 142.279 160.983,142.194 160.568,141.721 160.431 C 141.002 160.222,135.691 160.081,134.711 160.244 " stroke="none" fill="#111111" fill-rule="evenodd"/><path id="path1" d="M0.000 117.855 L 0.000 235.710 200.000 235.710 L 400.000 235.710 400.000 117.855 L 400.000 0.000 200.000 0.000 L 0.000 0.000 0.000 117.855 M118.209 55.944 C 128.266 58.912,131.390 67.170,126.619 78.178 C 126.236 79.063,125.842 80.053,125.744 80.377 C 125.647 80.701,125.317 81.336,125.011 81.787 C 124.705 82.239,124.455 82.785,124.455 83.001 C 124.455 83.217,124.120 84.014,123.710 84.773 C 122.164 87.636,122.483 91.717,124.368 93.186 C 128.595 96.479,136.250 92.334,142.880 83.160 C 143.424 82.407,144.110 82.828,144.209 83.976 C 144.390 86.098,137.472 93.108,132.940 95.393 L 130.701 96.522 128.108 96.523 C 125.855 96.523,125.408 96.456,124.691 96.010 C 124.237 95.728,123.310 95.171,122.630 94.772 C 120.044 93.254,118.224 89.600,118.220 85.916 C 118.216 82.770,119.017 80.285,122.094 73.895 C 123.551 70.869,124.702 67.335,124.766 65.694 C 124.868 63.049,122.377 59.870,119.627 59.134 C 119.106 58.995,118.220 58.673,117.657 58.418 C 115.652 57.508,108.115 57.603,105.367 58.572 C 104.884 58.743,103.597 59.061,102.509 59.279 C 101.421 59.498,100.311 59.816,100.043 59.986 C 99.775 60.157,98.873 60.511,98.039 60.773 C 96.484 61.263,94.005 62.445,92.751 63.296 C 92.363 63.559,91.674 63.960,91.220 64.185 C 90.223 64.681,88.286 66.017,85.693 67.999 C 81.885 70.908,73.306 80.427,73.306 81.742 C 73.306 81.890,73.003 82.359,72.632 82.785 C 72.262 83.211,71.823 83.984,71.657 84.502 C 71.491 85.021,71.147 85.741,70.893 86.102 C 70.640 86.464,70.284 87.466,70.104 88.329 C 69.923 89.192,69.501 90.598,69.166 91.453 C 68.305 93.645,68.353 102.012,69.235 103.595 C 69.523 104.113,69.976 105.015,70.240 105.598 C 71.197 107.714,73.386 110.372,74.935 111.299 C 75.400 111.577,75.976 111.971,76.216 112.176 C 76.652 112.549,79.543 113.686,81.084 114.091 C 82.787 114.539,88.274 114.367,89.753 113.820 C 90.495 113.545,91.732 113.179,92.502 113.007 C 93.273 112.836,94.386 112.436,94.977 112.120 C 95.568 111.803,96.315 111.464,96.636 111.367 C 96.957 111.269,97.712 110.860,98.314 110.456 C 98.917 110.053,99.764 109.511,100.197 109.252 C 102.626 107.799,103.342 107.164,108.112 102.239 C 109.334 100.979,109.484 100.923,109.846 101.600 C 110.400 102.635,107.066 106.889,104.184 108.825 C 103.860 109.042,102.873 109.837,101.990 110.591 C 101.108 111.345,100.241 111.962,100.064 111.962 C 99.886 111.962,99.425 112.229,99.038 112.554 C 98.651 112.880,97.893 113.302,97.354 113.492 C 96.816 113.682,96.115 114.042,95.798 114.291 C 95.481 114.541,94.666 114.877,93.987 115.039 C 93.308 115.201,92.062 115.607,91.220 115.943 C 89.049 116.807,80.412 116.889,78.845 116.060 C 78.326 115.786,77.478 115.430,76.959 115.269 C 73.461 114.185,68.748 109.513,67.873 106.263 C 67.723 105.704,67.394 104.845,67.144 104.353 C 65.951 102.015,66.031 92.666,67.265 90.281 C 67.567 89.695,67.879 88.657,67.957 87.973 C 68.035 87.289,68.359 86.229,68.677 85.616 C 68.994 85.003,69.715 83.547,70.278 82.381 C 71.481 79.889,72.264 78.648,74.424 75.808 C 77.506 71.755,84.475 65.347,87.802 63.506 C 88.191 63.291,88.721 62.926,88.981 62.694 C 89.537 62.197,91.608 61.006,93.105 60.322 C 93.689 60.055,94.658 59.579,95.259 59.264 C 95.860 58.949,96.526 58.692,96.739 58.692 C 96.952 58.692,97.737 58.383,98.483 58.007 C 99.230 57.630,100.367 57.252,101.010 57.168 C 101.654 57.083,102.933 56.750,103.852 56.428 C 106.770 55.406,115.400 55.115,118.209 55.944 M248.321 60.780 C 249.098 61.070,250.318 61.469,251.031 61.667 C 251.744 61.865,252.590 62.205,252.910 62.422 C 253.230 62.639,253.991 63.082,254.601 63.406 C 256.204 64.258,258.208 65.855,258.960 66.879 C 260.886 69.502,261.505 69.790,263.887 69.167 C 267.845 68.131,269.004 68.039,278.256 68.022 C 287.251 68.006,290.193 68.225,292.436 69.077 C 292.754 69.198,293.986 69.407,295.174 69.542 C 296.362 69.676,298.185 70.040,299.227 70.350 C 300.268 70.660,302.051 71.032,303.188 71.177 C 304.326 71.321,305.917 71.642,306.724 71.889 C 307.531 72.136,309.202 72.499,310.437 72.696 C 311.672 72.893,313.156 73.221,313.734 73.425 C 315.733 74.131,317.287 74.146,318.754 73.474 C 319.475 73.144,320.665 72.749,321.399 72.597 C 322.133 72.445,323.090 72.109,323.526 71.852 C 323.963 71.595,325.092 71.277,326.036 71.146 C 326.979 71.015,328.283 70.658,328.932 70.351 C 329.671 70.003,330.949 69.697,332.351 69.535 C 333.583 69.392,335.333 69.070,336.240 68.818 C 340.771 67.562,354.295 67.560,357.594 68.814 C 358.295 69.081,359.503 69.414,360.279 69.555 C 361.162 69.715,362.040 70.068,362.624 70.498 C 363.138 70.875,363.683 71.184,363.835 71.184 C 364.315 71.184,365.998 73.205,366.170 73.989 C 366.783 76.780,364.301 79.900,360.519 81.094 C 360.000 81.258,359.355 81.535,359.086 81.710 C 358.817 81.885,357.623 82.236,356.433 82.490 C 355.244 82.744,353.714 83.119,353.034 83.322 C 349.020 84.523,332.950 84.378,326.223 83.081 C 325.250 82.893,323.343 82.631,321.984 82.498 C 320.625 82.365,318.769 82.053,317.859 81.803 C 316.949 81.554,314.932 81.172,313.377 80.954 C 311.821 80.737,310.482 80.520,310.402 80.473 C 310.045 80.263,307.393 81.166,306.502 81.800 C 305.963 82.184,305.443 82.499,305.347 82.499 C 305.158 82.499,304.110 83.256,301.288 85.434 C 294.618 90.579,287.453 99.475,280.966 110.661 C 280.642 111.220,280.210 111.927,280.007 112.232 C 276.652 117.258,276.786 118.541,280.710 118.951 C 282.670 119.156,283.134 118.981,283.754 117.804 C 286.607 112.394,290.057 109.959,294.869 109.959 C 298.791 109.959,300.264 111.039,300.484 114.075 C 300.624 116.014,298.221 119.741,296.829 119.741 C 296.610 119.741,296.024 120.023,295.527 120.367 C 294.611 121.002,291.558 121.587,289.013 121.615 C 287.103 121.636,286.419 122.260,284.906 125.354 C 282.230 130.826,278.305 134.724,274.857 135.331 C 272.461 135.753,271.539 134.244,273.609 133.289 C 275.661 132.343,277.887 129.453,280.756 124.012 C 282.094 121.475,282.104 121.496,279.346 121.010 C 275.927 120.407,275.406 120.546,274.383 122.334 C 274.197 122.658,273.677 123.559,273.227 124.337 C 272.776 125.115,272.122 126.282,271.774 126.930 C 270.543 129.218,268.508 132.615,266.831 135.180 C 266.323 135.958,265.737 136.890,265.529 137.252 C 265.321 137.614,264.724 138.463,264.203 139.138 C 263.681 139.813,262.850 140.896,262.355 141.544 C 261.238 143.009,257.273 146.850,255.418 148.264 C 254.655 148.846,253.700 149.590,253.297 149.917 C 251.601 151.292,245.850 154.913,244.196 155.648 C 243.742 155.850,243.105 156.173,242.781 156.368 C 239.802 158.155,232.693 160.851,228.757 161.685 C 227.590 161.933,225.628 162.352,224.396 162.616 C 219.527 163.661,209.519 163.501,206.128 162.325 C 205.221 162.010,203.977 161.681,203.364 161.593 C 202.290 161.440,199.153 160.045,196.700 158.631 C 195.336 157.844,192.459 155.071,191.934 154.037 C 191.737 153.648,191.408 153.139,191.204 152.906 C 191.000 152.673,190.455 150.976,189.995 149.135 C 188.970 145.039,188.946 145.028,186.786 147.592 C 184.727 150.035,179.516 155.218,178.161 156.171 C 177.597 156.568,176.713 157.204,176.195 157.586 C 175.678 157.967,174.831 158.471,174.314 158.705 C 173.796 158.939,173.212 159.270,173.015 159.441 C 172.819 159.612,172.233 159.878,171.715 160.033 C 171.196 160.188,170.242 160.569,169.593 160.881 C 168.840 161.242,167.607 161.540,166.176 161.707 C 164.944 161.850,163.338 162.118,162.606 162.303 C 160.506 162.835,154.737 162.762,153.016 162.182 C 151.116 161.542,144.657 161.440,143.086 162.026 C 142.508 162.242,141.076 162.521,139.904 162.646 C 138.732 162.771,137.534 162.940,137.242 163.020 C 136.177 163.314,133.192 162.868,132.584 162.324 C 130.149 160.144,133.723 158.443,139.305 159.126 C 144.070 159.708,146.743 159.580,148.354 158.692 C 149.117 158.270,149.915 157.926,150.125 157.926 C 150.336 157.926,150.825 157.657,151.212 157.328 C 151.599 156.999,152.770 156.108,153.816 155.349 C 157.457 152.705,160.866 148.637,164.889 142.133 C 166.787 139.065,169.611 133.915,173.548 126.341 C 174.660 124.202,176.346 121.035,177.296 119.304 C 178.245 117.573,179.350 115.558,179.752 114.826 C 180.154 114.093,180.801 112.911,181.190 112.198 C 182.866 109.131,184.853 105.690,185.138 105.363 C 185.307 105.168,185.669 104.532,185.941 103.948 C 186.214 103.365,186.858 102.251,187.372 101.473 C 187.887 100.695,188.521 99.674,188.782 99.202 C 189.043 98.731,189.821 97.512,190.511 96.492 C 191.200 95.472,191.884 94.372,192.029 94.048 C 192.174 93.724,192.989 92.504,193.841 91.338 C 194.692 90.171,195.734 88.739,196.156 88.156 C 198.370 85.094,207.735 75.372,210.902 72.847 C 212.836 71.305,211.306 71.232,208.781 72.745 C 199.585 78.257,189.438 87.619,180.200 99.114 C 179.293 100.243,178.179 101.627,177.725 102.191 C 175.817 104.559,171.185 110.491,168.533 113.962 C 167.820 114.896,166.759 116.273,166.176 117.023 C 165.592 117.774,164.903 118.682,164.643 119.043 C 164.384 119.403,163.487 120.582,162.651 121.664 C 161.814 122.745,160.802 124.059,160.402 124.584 C 160.003 125.109,158.778 126.638,157.681 127.981 C 156.584 129.324,155.272 130.961,154.766 131.618 C 154.259 132.275,153.039 133.713,152.055 134.814 C 151.071 135.916,150.000 137.133,149.676 137.520 C 149.109 138.196,147.208 140.216,142.706 144.924 C 141.548 146.135,140.311 147.277,139.957 147.462 C 139.602 147.647,138.648 148.467,137.835 149.285 C 135.233 151.903,131.240 155.097,130.568 155.097 C 130.456 155.097,130.001 155.416,129.558 155.805 C 129.114 156.194,128.386 156.666,127.940 156.852 C 127.493 157.039,126.990 157.358,126.822 157.561 C 126.653 157.764,126.096 157.997,125.585 158.079 C 124.992 158.174,124.349 158.515,123.814 159.019 C 123.353 159.455,122.801 159.811,122.589 159.811 C 122.377 159.811,121.570 160.126,120.795 160.511 C 117.718 162.040,116.581 160.868,118.944 158.603 C 124.356 153.419,126.909 150.109,129.083 145.460 C 129.666 144.214,130.403 142.664,130.721 142.015 C 131.040 141.367,131.502 140.253,131.750 139.540 C 132.398 137.671,133.521 134.660,134.081 133.294 C 134.346 132.646,134.715 131.638,134.901 131.055 C 135.088 130.471,135.451 129.464,135.710 128.816 C 136.279 127.391,137.067 125.080,137.645 123.143 C 137.880 122.357,138.282 121.296,138.539 120.786 C 138.795 120.276,139.140 119.275,139.305 118.562 C 139.469 117.849,139.803 116.870,140.046 116.387 C 140.289 115.903,140.652 114.800,140.852 113.935 C 141.053 113.070,141.409 111.981,141.643 111.514 C 141.877 111.048,142.204 110.082,142.369 109.369 C 142.534 108.656,142.867 107.678,143.110 107.194 C 143.353 106.711,143.716 105.606,143.917 104.739 C 144.119 103.872,144.443 102.852,144.639 102.474 C 144.835 102.095,145.242 101.078,145.544 100.215 C 146.594 97.207,147.540 94.765,148.017 93.830 C 148.281 93.312,148.497 92.752,148.497 92.585 C 148.497 92.246,148.925 91.340,151.951 85.266 C 154.645 79.858,155.082 79.036,155.863 77.906 C 156.220 77.390,156.511 76.780,156.511 76.551 C 156.511 75.805,155.826 76.111,155.333 77.077 C 155.068 77.596,154.758 78.020,154.643 78.020 C 154.528 78.020,154.027 78.570,153.528 79.242 C 151.813 81.557,149.893 84.268,149.490 84.944 C 149.268 85.317,148.862 85.900,148.588 86.241 C 148.315 86.581,147.861 87.283,147.581 87.802 C 147.301 88.321,146.652 89.381,146.140 90.159 C 145.627 90.937,144.940 92.051,144.612 92.634 C 144.285 93.217,143.597 94.384,143.084 95.227 C 142.572 96.070,141.829 97.342,141.433 98.055 C 139.424 101.680,138.919 102.609,137.718 104.891 C 137.002 106.252,136.237 107.631,136.019 107.955 C 135.801 108.279,135.046 109.680,134.341 111.067 C 132.170 115.336,131.688 116.248,130.376 118.563 C 128.161 122.474,125.820 126.439,125.367 127.048 C 125.126 127.372,124.721 128.021,124.467 128.490 C 120.233 136.317,110.497 146.774,101.827 152.807 C 98.043 155.439,96.225 156.463,90.395 159.247 C 89.000 159.913,86.243 160.878,84.266 161.391 C 83.489 161.593,81.957 162.019,80.862 162.339 C 76.220 163.693,67.460 163.620,62.210 162.183 C 51.804 159.335,46.212 151.370,49.024 143.403 C 50.511 139.190,53.472 137.243,57.605 137.759 C 61.806 138.284,62.794 144.981,59.133 148.115 C 56.889 150.035,53.486 149.588,52.274 147.214 C 51.366 145.434,50.849 147.261,51.408 150.280 C 52.054 153.776,57.633 158.622,61.992 159.475 C 62.445 159.564,63.612 159.908,64.585 160.239 C 67.287 161.161,74.926 161.160,78.256 160.237 C 79.487 159.896,80.919 159.545,81.438 159.457 C 89.117 158.157,103.441 147.799,111.727 137.555 C 112.440 136.674,113.664 135.195,114.447 134.270 C 116.895 131.379,121.094 125.582,122.923 122.569 C 123.199 122.115,123.941 120.949,124.573 119.976 C 126.095 117.634,126.547 116.909,127.881 114.673 C 128.499 113.636,129.155 112.575,129.337 112.316 C 129.520 112.057,130.220 110.926,130.893 109.802 C 132.314 107.429,134.147 104.392,136.815 99.987 C 137.860 98.263,138.874 96.566,139.069 96.216 C 140.813 93.081,144.964 86.598,146.807 84.131 C 147.153 83.667,147.786 82.819,148.213 82.245 C 152.830 76.044,161.941 66.530,164.594 65.140 C 166.928 63.917,168.609 65.141,167.177 67.021 C 165.327 69.453,164.200 71.234,163.352 73.070 C 163.083 73.654,162.613 74.608,162.309 75.192 C 162.005 75.775,161.622 76.668,161.459 77.176 C 161.296 77.684,160.976 78.426,160.747 78.826 C 160.518 79.225,160.151 80.185,159.932 80.959 C 159.712 81.733,159.342 82.741,159.110 83.199 C 158.878 83.656,158.560 84.647,158.405 85.401 C 158.249 86.154,157.927 87.215,157.689 87.758 C 157.450 88.301,157.136 89.411,156.989 90.226 C 156.843 91.041,156.508 92.208,156.244 92.819 C 155.980 93.430,155.619 94.683,155.442 95.603 C 155.264 96.523,154.915 97.795,154.665 98.431 C 154.415 99.067,154.041 100.412,153.833 101.420 C 153.625 102.428,153.244 103.754,152.986 104.367 C 152.727 104.979,152.403 106.011,152.265 106.659 C 151.980 108.001,150.879 111.473,149.911 114.084 C 149.550 115.056,149.178 116.223,149.083 116.676 C 148.988 117.130,148.667 118.138,148.369 118.916 C 148.071 119.694,147.598 121.019,147.317 121.862 C 146.161 125.342,145.645 126.737,145.228 127.519 C 144.985 127.973,144.713 128.662,144.623 129.051 C 144.532 129.440,144.155 130.395,143.785 131.173 C 143.414 131.951,142.676 133.542,142.143 134.708 C 141.611 135.875,141.014 137.095,140.817 137.419 C 140.619 137.743,140.298 138.365,140.103 138.800 C 139.908 139.236,139.409 140.103,138.996 140.727 C 138.582 141.351,137.979 142.314,137.655 142.866 C 136.983 144.011,133.505 148.730,133.070 149.087 C 132.769 149.333,131.526 151.227,131.526 151.439 C 131.526 151.995,133.238 150.921,134.708 149.443 C 135.097 149.053,135.536 148.733,135.684 148.733 C 136.341 148.733,144.655 139.755,147.603 135.862 C 150.723 131.740,152.200 129.804,153.280 128.420 C 153.955 127.554,155.250 125.822,156.158 124.571 C 158.670 121.107,162.774 115.481,163.464 114.555 C 163.803 114.101,164.427 113.253,164.852 112.669 C 165.276 112.086,166.205 110.813,166.916 109.841 C 167.626 108.869,168.732 107.344,169.372 106.453 C 170.012 105.562,171.563 103.440,172.819 101.739 C 174.074 100.037,175.452 98.167,175.881 97.584 C 176.634 96.561,177.795 95.104,181.047 91.102 C 181.890 90.065,182.743 88.978,182.944 88.686 C 185.053 85.621,194.765 76.051,199.030 72.834 C 204.043 69.054,206.244 67.584,208.721 66.362 C 209.369 66.042,210.165 65.629,210.489 65.444 C 212.003 64.579,214.252 63.550,215.321 63.232 C 215.969 63.040,216.871 62.694,217.325 62.464 C 217.778 62.234,218.786 61.919,219.564 61.763 C 220.342 61.607,221.679 61.271,222.536 61.016 C 226.161 59.936,245.579 59.759,248.321 60.780 M247.863 63.855 C 247.790 63.973,248.288 64.523,248.969 65.078 C 249.649 65.633,251.278 67.128,252.588 68.400 C 255.048 70.789,255.594 71.063,256.704 70.469 C 257.911 69.823,256.091 67.123,253.423 65.601 C 252.821 65.257,252.146 64.822,251.923 64.634 C 251.200 64.021,248.125 63.431,247.863 63.855 M227.932 65.873 C 227.478 66.051,226.392 66.460,225.519 66.781 C 224.646 67.102,223.604 67.641,223.203 67.978 C 222.802 68.316,222.342 68.592,222.181 68.592 C 221.916 68.592,221.283 69.017,218.425 71.112 C 217.503 71.787,215.132 73.816,213.435 75.382 C 211.065 77.567,205.789 83.779,204.951 85.369 C 204.631 85.976,204.259 86.540,204.125 86.623 C 203.990 86.707,203.609 87.271,203.278 87.878 C 202.946 88.484,202.310 89.617,201.864 90.395 C 201.418 91.173,200.828 92.286,200.553 92.870 C 200.278 93.453,199.847 94.224,199.595 94.583 C 198.996 95.436,194.877 103.698,194.231 105.343 C 193.955 106.046,193.537 106.894,193.301 107.229 C 193.065 107.564,192.794 108.103,192.697 108.427 C 192.601 108.751,192.282 109.493,191.988 110.077 C 190.987 112.068,189.275 115.721,189.275 115.868 C 189.275 115.949,189.070 116.302,188.820 116.654 C 188.570 117.005,188.179 117.764,187.952 118.340 C 187.725 118.916,187.299 119.758,187.006 120.212 C 186.712 120.666,185.963 122.008,185.340 123.196 C 183.095 127.474,181.417 130.479,180.873 131.195 C 180.568 131.596,180.318 132.019,180.318 132.136 C 180.318 132.252,179.966 132.878,179.535 133.528 C 179.104 134.177,178.313 135.398,177.776 136.240 C 174.871 140.801,172.064 144.279,168.071 148.264 C 164.288 152.041,163.855 152.388,158.198 156.178 C 157.505 156.642,155.983 157.503,154.817 158.092 C 152.857 159.080,152.725 159.190,153.080 159.545 C 153.977 160.443,165.953 159.826,168.533 158.749 C 169.246 158.452,170.306 158.082,170.890 157.927 C 171.473 157.773,172.113 157.501,172.313 157.324 C 172.512 157.146,173.170 156.782,173.776 156.514 C 174.382 156.246,174.942 155.922,175.021 155.794 C 175.100 155.666,175.555 155.361,176.032 155.116 C 177.045 154.595,183.528 148.109,185.947 145.197 C 188.246 142.430,188.574 142.040,190.413 139.892 C 191.301 138.854,192.178 137.740,192.361 137.416 C 193.926 134.640,195.973 133.481,195.533 135.620 C 195.124 137.608,195.042 137.521,197.454 137.674 C 201.160 137.908,202.352 139.170,202.335 142.840 C 202.322 145.643,201.382 147.139,198.939 148.243 C 196.944 149.145,194.394 148.419,193.583 146.717 C 192.952 145.396,192.693 145.852,192.693 148.283 C 192.693 151.890,196.034 156.023,200.493 157.935 C 201.091 158.191,201.843 158.607,202.162 158.859 C 202.482 159.110,203.240 159.388,203.847 159.475 C 204.454 159.562,205.745 159.910,206.718 160.248 C 210.816 161.672,222.615 160.675,227.430 158.498 C 228.126 158.183,228.806 157.926,228.940 157.926 C 229.337 157.926,233.419 156.002,234.060 155.513 C 234.384 155.266,235.270 154.701,236.029 154.258 C 240.368 151.724,247.665 144.743,253.051 137.975 C 255.640 134.722,259.609 129.277,261.874 125.871 C 262.198 125.384,262.668 124.680,262.919 124.307 C 265.527 120.432,265.700 120.039,265.036 119.489 C 264.518 119.059,260.658 119.541,259.823 120.140 C 259.497 120.374,258.879 120.781,258.449 121.044 C 257.506 121.621,256.245 122.954,255.700 123.951 C 255.164 124.932,253.923 125.684,253.348 125.376 C 251.935 124.620,254.706 120.640,257.550 119.340 C 258.048 119.112,258.737 118.701,259.080 118.426 C 259.460 118.122,260.221 117.865,261.020 117.771 C 261.743 117.686,262.872 117.405,263.528 117.146 C 264.183 116.888,265.144 116.676,265.662 116.676 C 266.179 116.676,266.957 116.529,267.390 116.348 C 268.125 116.041,268.440 115.692,270.182 113.259 C 270.554 112.740,271.514 111.428,272.317 110.343 C 273.120 109.258,273.936 108.137,274.131 107.852 C 274.622 107.133,275.876 105.543,277.491 103.595 C 285.381 94.071,292.780 87.373,300.412 82.845 C 301.450 82.230,302.669 81.482,303.123 81.183 C 303.577 80.884,304.248 80.527,304.616 80.389 C 306.190 79.798,303.107 78.535,298.537 77.897 C 297.116 77.699,295.274 77.327,294.443 77.071 C 293.612 76.814,291.998 76.498,290.856 76.369 C 289.714 76.240,287.685 75.874,286.346 75.556 C 285.008 75.238,282.693 74.866,281.202 74.731 C 279.711 74.595,277.855 74.368,277.077 74.226 C 273.368 73.551,264.441 73.066,263.792 73.504 C 263.436 73.744,263.834 75.785,264.697 78.149 C 267.654 86.246,263.921 101.204,256.494 111.019 C 248.956 120.983,241.946 125.978,231.585 128.771 C 231.067 128.911,228.786 129.031,226.517 129.038 L 222.392 129.051 220.120 127.936 C 214.800 125.326,212.244 120.820,212.417 114.355 C 212.485 111.799,212.592 110.972,212.936 110.333 C 213.174 109.891,213.518 108.673,213.701 107.628 C 213.900 106.487,214.255 105.391,214.588 104.887 C 214.894 104.426,215.219 103.705,215.311 103.285 C 215.404 102.866,215.736 102.217,216.051 101.843 C 216.366 101.469,216.785 100.705,216.982 100.146 C 217.179 99.587,217.536 98.914,217.775 98.651 C 218.013 98.388,218.344 97.908,218.509 97.584 C 219.262 96.105,225.760 88.666,228.003 86.715 C 229.066 85.790,230.273 84.702,230.685 84.296 C 231.098 83.891,231.893 83.210,232.453 82.784 C 233.013 82.358,233.932 81.642,234.495 81.193 C 235.058 80.744,235.611 80.377,235.724 80.377 C 235.837 80.377,236.278 80.075,236.704 79.705 C 237.129 79.336,237.748 78.885,238.079 78.704 C 239.060 78.165,240.179 77.478,241.344 76.698 C 241.946 76.294,242.702 75.885,243.023 75.788 C 243.344 75.692,244.093 75.306,244.688 74.931 C 245.282 74.556,245.923 74.249,246.111 74.249 C 246.299 74.249,246.873 74.024,247.387 73.750 C 247.900 73.475,248.718 73.049,249.204 72.801 C 249.691 72.554,250.088 72.272,250.088 72.174 C 250.088 71.350,247.995 69.866,244.582 68.271 C 242.487 67.292,241.573 67.024,236.787 65.985 C 234.220 65.427,229.225 65.364,227.932 65.873 M340.719 70.470 C 339.682 70.568,338.197 70.815,337.419 71.020 C 336.641 71.224,334.785 71.520,333.294 71.677 C 331.716 71.843,329.992 72.183,329.169 72.492 C 328.391 72.783,327.118 73.097,326.341 73.189 C 325.341 73.307,324.600 73.573,323.813 74.097 C 322.073 75.255,322.212 75.402,325.398 75.783 C 326.046 75.860,328.167 76.229,330.112 76.602 C 333.323 77.219,336.978 77.716,342.487 78.288 C 346.890 78.744,354.313 78.803,356.176 78.397 C 362.401 77.038,364.638 75.785,363.986 74.022 C 363.709 73.275,361.249 71.937,359.618 71.648 C 358.817 71.506,357.472 71.167,356.629 70.893 C 354.953 70.350,344.850 70.081,340.719 70.470 M257.406 73.530 C 257.113 73.715,257.162 74.021,257.734 75.589 C 259.506 80.444,259.349 79.299,259.351 87.390 C 259.352 91.441,259.432 94.755,259.529 94.755 C 259.851 94.755,260.224 93.292,260.224 92.031 C 260.224 91.163,260.404 90.445,260.824 89.636 C 261.914 87.534,262.205 80.279,261.308 77.549 C 260.388 74.747,259.957 73.668,259.690 73.498 C 259.291 73.244,257.825 73.265,257.406 73.530 M250.733 74.977 C 250.245 75.092,249.449 75.388,248.964 75.635 C 248.479 75.883,247.606 76.213,247.025 76.370 C 246.444 76.526,245.682 76.858,245.333 77.107 C 244.984 77.355,244.246 77.718,243.693 77.913 C 243.139 78.108,242.509 78.429,242.292 78.626 C 242.074 78.823,241.466 79.218,240.939 79.504 C 238.117 81.037,237.657 81.316,237.362 81.671 C 237.186 81.884,236.734 82.217,236.359 82.411 C 235.984 82.605,235.044 83.261,234.270 83.869 C 233.496 84.476,232.575 85.186,232.222 85.445 C 231.870 85.704,230.890 86.606,230.045 87.448 C 229.199 88.291,228.033 89.419,227.454 89.955 C 224.795 92.414,221.120 96.667,220.500 98.002 C 220.303 98.426,219.941 98.975,219.694 99.222 C 219.447 99.468,218.992 100.182,218.682 100.807 C 218.372 101.433,217.956 102.263,217.757 102.652 C 216.256 105.589,215.952 106.326,215.810 107.366 C 215.721 108.014,215.369 109.126,215.028 109.837 C 213.956 112.071,214.071 116.553,215.272 119.340 C 216.789 122.858,218.314 124.499,221.441 125.978 L 223.319 126.867 226.038 126.753 C 233.636 126.434,241.390 121.825,248.640 113.318 C 251.360 110.126,254.585 105.659,255.660 103.595 C 255.930 103.076,256.682 101.644,257.331 100.412 C 258.306 98.562,259.045 96.435,259.045 95.480 C 259.045 95.373,258.732 95.223,258.349 95.147 C 257.053 94.887,256.793 94.104,257.243 91.814 C 257.979 88.068,257.536 80.916,256.476 79.434 C 256.244 79.110,255.863 78.475,255.629 78.022 C 254.112 75.088,253.053 74.430,250.733 74.977 M293.236 112.732 C 290.540 114.087,287.386 118.193,288.431 118.985 C 289.158 119.537,294.487 119.253,295.173 118.626 C 295.462 118.362,296.029 117.979,296.433 117.775 C 297.170 117.403,298.646 115.396,298.643 114.770 C 298.634 112.813,295.456 111.615,293.236 112.732 " stroke="none" fill="#fbfbfb" fill-rule="evenodd"/><path id="path2" d="M107.859 55.634 C 106.474 55.758,104.844 56.081,103.852 56.428 C 102.933 56.750,101.654 57.083,101.010 57.168 C 100.367 57.252,99.230 57.630,98.483 58.007 C 97.737 58.383,96.952 58.692,96.739 58.692 C 96.526 58.692,95.860 58.949,95.259 59.264 C 94.658 59.579,93.689 60.055,93.105 60.322 C 91.608 61.006,89.537 62.197,88.981 62.694 C 88.721 62.926,88.191 63.291,87.802 63.506 C 84.475 65.347,77.506 71.755,74.424 75.808 C 72.264 78.648,71.481 79.889,70.278 82.381 C 69.715 83.547,68.994 85.003,68.677 85.616 C 68.359 86.229,68.035 87.289,67.957 87.973 C 67.879 88.657,67.567 89.695,67.265 90.281 C 66.031 92.666,65.951 102.015,67.144 104.353 C 67.394 104.845,67.723 105.704,67.873 106.263 C 68.748 109.513,73.461 114.185,76.959 115.269 C 77.478 115.430,78.326 115.786,78.845 116.060 C 80.412 116.889,89.049 116.807,91.220 115.943 C 92.062 115.607,93.308 115.201,93.987 115.039 C 94.666 114.877,95.481 114.541,95.798 114.291 C 96.115 114.042,96.816 113.682,97.354 113.492 C 97.893 113.302,98.651 112.880,99.038 112.554 C 99.425 112.229,99.886 111.962,100.064 111.962 C 100.241 111.962,101.108 111.345,101.990 110.591 C 102.873 109.837,103.860 109.042,104.184 108.825 C 107.066 106.889,110.400 102.635,109.846 101.600 C 109.484 100.923,109.334 100.979,108.112 102.239 C 103.342 107.164,102.626 107.799,100.197 109.252 C 99.764 109.511,98.917 110.053,98.314 110.456 C 97.712 110.860,96.957 111.269,96.636 111.367 C 96.315 111.464,95.568 111.803,94.977 112.120 C 94.386 112.436,93.273 112.836,92.502 113.007 C 91.732 113.179,90.495 113.545,89.753 113.820 C 88.274 114.367,82.787 114.539,81.084 114.091 C 79.543 113.686,76.652 112.549,76.216 112.176 C 75.976 111.971,75.400 111.577,74.935 111.299 C 73.386 110.372,71.197 107.714,70.240 105.598 C 69.976 105.015,69.523 104.113,69.235 103.595 C 68.353 102.012,68.305 93.645,69.166 91.453 C 69.501 90.598,69.923 89.192,70.104 88.329 C 70.284 87.466,70.640 86.464,70.893 86.102 C 71.147 85.741,71.491 85.021,71.657 84.502 C 71.823 83.984,72.262 83.211,72.632 82.785 C 73.003 82.359,73.306 81.890,73.306 81.742 C 73.306 80.427,81.885 70.908,85.693 67.999 C 88.286 66.017,90.223 64.681,91.220 64.185 C 91.674 63.960,92.363 63.559,92.751 63.296 C 94.005 62.445,96.484 61.263,98.039 60.773 C 98.873 60.511,99.775 60.157,100.043 59.986 C 100.311 59.816,101.421 59.498,102.509 59.279 C 103.597 59.061,104.884 58.743,105.367 58.572 C 108.115 57.603,115.652 57.508,117.657 58.418 C 118.220 58.673,119.106 58.995,119.627 59.134 C 122.377 59.870,124.868 63.049,124.766 65.694 C 124.702 67.335,123.551 70.869,122.094 73.895 C 119.017 80.285,118.216 82.770,118.220 85.916 C 118.224 89.600,120.044 93.254,122.630 94.772 C 123.310 95.171,124.237 95.728,124.691 96.010 C 125.408 96.456,125.855 96.523,128.108 96.523 L 130.701 96.522 132.940 95.393 C 137.472 93.108,144.390 86.098,144.209 83.976 C 144.110 82.828,143.424 82.407,142.880 83.160 C 136.250 92.334,128.595 96.479,124.368 93.186 C 122.483 91.717,122.164 87.636,123.710 84.773 C 124.120 84.014,124.455 83.217,124.455 83.001 C 124.455 82.785,124.705 82.239,125.011 81.787 C 125.317 81.336,125.647 80.701,125.744 80.377 C 125.842 80.053,126.236 79.063,126.619 78.178 C 130.360 69.545,129.281 62.661,123.512 58.362 C 120.198 55.892,115.041 54.993,107.859 55.634 M226.072 60.349 C 224.984 60.461,223.393 60.761,222.536 61.016 C 221.679 61.271,220.342 61.607,219.564 61.763 C 218.786 61.919,217.778 62.234,217.325 62.464 C 216.871 62.694,215.969 63.040,215.321 63.232 C 214.252 63.550,212.003 64.579,210.489 65.444 C 210.165 65.629,209.369 66.042,208.721 66.362 C 206.244 67.584,204.043 69.054,199.030 72.834 C 194.765 76.051,185.053 85.621,182.944 88.686 C 182.743 88.978,181.890 90.065,181.047 91.102 C 177.795 95.104,176.634 96.561,175.881 97.584 C 175.452 98.167,174.074 100.037,172.819 101.739 C 171.563 103.440,170.012 105.562,169.372 106.453 C 168.732 107.344,167.626 108.869,166.916 109.841 C 166.205 110.813,165.276 112.086,164.852 112.669 C 164.427 113.253,163.803 114.101,163.464 114.555 C 162.774 115.481,158.670 121.107,156.158 124.571 C 155.250 125.822,153.955 127.554,153.280 128.420 C 152.200 129.804,150.723 131.740,147.603 135.862 C 144.655 139.755,136.341 148.733,135.684 148.733 C 135.536 148.733,135.097 149.053,134.708 149.443 C 133.238 150.921,131.526 151.995,131.526 151.439 C 131.526 151.227,132.769 149.333,133.070 149.087 C 133.505 148.730,136.983 144.011,137.655 142.866 C 137.979 142.314,138.582 141.351,138.996 140.727 C 139.409 140.103,139.908 139.236,140.103 138.800 C 140.298 138.365,140.619 137.743,140.817 137.419 C 141.014 137.095,141.611 135.875,142.143 134.708 C 142.676 133.542,143.414 131.951,143.785 131.173 C 144.155 130.395,144.532 129.440,144.623 129.051 C 144.713 128.662,144.985 127.973,145.228 127.519 C 145.645 126.737,146.161 125.342,147.317 121.862 C 147.598 121.019,148.071 119.694,148.369 118.916 C 148.667 118.138,148.988 117.130,149.083 116.676 C 149.178 116.223,149.550 115.056,149.911 114.084 C 150.879 111.473,151.980 108.001,152.265 106.659 C 152.403 106.011,152.727 104.979,152.986 104.367 C 153.244 103.754,153.625 102.428,153.833 101.420 C 154.041 100.412,154.415 99.067,154.665 98.431 C 154.915 97.795,155.264 96.523,155.442 95.603 C 155.619 94.683,155.980 93.430,156.244 92.819 C 156.508 92.208,156.843 91.041,156.989 90.226 C 157.136 89.411,157.450 88.301,157.689 87.758 C 157.927 87.215,158.249 86.154,158.405 85.401 C 158.560 84.647,158.878 83.656,159.110 83.199 C 159.342 82.741,159.712 81.733,159.932 80.959 C 160.151 80.185,160.518 79.225,160.747 78.826 C 160.976 78.426,161.296 77.684,161.459 77.176 C 161.622 76.668,162.005 75.775,162.309 75.192 C 162.613 74.608,163.083 73.654,163.352 73.070 C 164.200 71.234,165.327 69.453,167.177 67.021 C 167.955 65.999,167.980 65.682,167.332 65.034 C 165.753 63.455,161.100 67.106,153.438 75.938 C 149.983 79.920,149.599 80.383,148.213 82.245 C 147.786 82.819,147.153 83.667,146.807 84.131 C 144.964 86.598,140.813 93.081,139.069 96.216 C 138.874 96.566,137.860 98.263,136.815 99.987 C 134.147 104.392,132.314 107.429,130.893 109.802 C 130.220 110.926,129.520 112.057,129.337 112.316 C 129.155 112.575,128.499 113.636,127.881 114.673 C 126.547 116.909,126.095 117.634,124.573 119.976 C 123.941 120.949,123.199 122.115,122.923 122.569 C 121.094 125.582,116.895 131.379,114.447 134.270 C 113.664 135.195,112.440 136.674,111.727 137.555 C 103.441 147.799,89.117 158.157,81.438 159.457 C 80.919 159.545,79.487 159.896,78.256 160.237 C 74.926 161.160,67.287 161.161,64.585 160.239 C 63.612 159.908,62.445 159.564,61.992 159.475 C 57.633 158.622,52.054 153.776,51.408 150.280 C 50.849 147.261,51.366 145.434,52.274 147.214 C 53.486 149.588,56.889 150.035,59.133 148.115 C 62.794 144.981,61.806 138.284,57.605 137.759 C 50.941 136.927,46.617 143.684,48.944 151.291 C 50.448 156.207,55.485 160.342,62.210 162.183 C 67.460 163.620,76.220 163.693,80.862 162.339 C 81.957 162.019,83.489 161.593,84.266 161.391 C 86.243 160.878,89.000 159.913,90.395 159.247 C 96.225 156.463,98.043 155.439,101.827 152.807 C 110.497 146.774,120.233 136.317,124.467 128.490 C 124.721 128.021,125.126 127.372,125.367 127.048 C 125.820 126.439,128.161 122.474,130.376 118.563 C 131.688 116.248,132.170 115.336,134.341 111.067 C 135.046 109.680,135.801 108.279,136.019 107.955 C 136.237 107.631,137.002 106.252,137.718 104.891 C 138.919 102.609,139.424 101.680,141.433 98.055 C 141.829 97.342,142.572 96.070,143.084 95.227 C 143.597 94.384,144.285 93.217,144.612 92.634 C 144.940 92.051,145.627 90.937,146.140 90.159 C 146.652 89.381,147.301 88.321,147.581 87.802 C 147.861 87.283,148.315 86.581,148.588 86.241 C 148.862 85.900,149.268 85.317,149.490 84.944 C 149.893 84.268,151.813 81.557,153.528 79.242 C 154.027 78.570,154.528 78.020,154.643 78.020 C 154.758 78.020,155.068 77.596,155.333 77.077 C 155.826 76.111,156.511 75.805,156.511 76.551 C 156.511 76.780,156.220 77.390,155.863 77.906 C 155.082 79.036,154.645 79.858,151.951 85.266 C 148.925 91.340,148.497 92.246,148.497 92.585 C 148.497 92.752,148.281 93.312,148.017 93.830 C 147.540 94.765,146.594 97.207,145.544 100.215 C 145.242 101.078,144.835 102.095,144.639 102.474 C 144.443 102.852,144.119 103.872,143.917 104.739 C 143.716 105.606,143.353 106.711,143.110 107.194 C 142.867 107.678,142.534 108.656,142.369 109.369 C 142.204 110.082,141.877 111.048,141.643 111.514 C 141.409 111.981,141.053 113.070,140.852 113.935 C 140.652 114.800,140.289 115.903,140.046 116.387 C 139.803 116.870,139.469 117.849,139.305 118.562 C 139.140 119.275,138.795 120.276,138.539 120.786 C 138.282 121.296,137.880 122.357,137.645 123.143 C 137.067 125.080,136.279 127.391,135.710 128.816 C 135.451 129.464,135.088 130.471,134.901 131.055 C 134.715 131.638,134.346 132.646,134.081 133.294 C 133.521 134.660,132.398 137.671,131.750 139.540 C 131.502 140.253,131.040 141.367,130.721 142.015 C 130.403 142.664,129.666 144.214,129.083 145.460 C 126.909 150.109,124.356 153.419,118.944 158.603 C 116.581 160.868,117.718 162.040,120.795 160.511 C 121.570 160.126,122.377 159.811,122.589 159.811 C 122.801 159.811,123.353 159.455,123.814 159.019 C 124.349 158.515,124.992 158.174,125.585 158.079 C 126.096 157.997,126.653 157.764,126.822 157.561 C 126.990 157.358,127.493 157.039,127.940 156.852 C 128.386 156.666,129.114 156.194,129.558 155.805 C 130.001 155.416,130.456 155.097,130.568 155.097 C 131.240 155.097,135.233 151.903,137.835 149.285 C 138.648 148.467,139.602 147.647,139.957 147.462 C 140.311 147.277,141.548 146.135,142.706 144.924 C 147.208 140.216,149.109 138.196,149.676 137.520 C 150.000 137.133,151.071 135.916,152.055 134.814 C 153.039 133.713,154.259 132.275,154.766 131.618 C 155.272 130.961,156.584 129.324,157.681 127.981 C 158.778 126.638,160.003 125.109,160.402 124.584 C 160.802 124.059,161.814 122.745,162.651 121.664 C 163.487 120.582,164.384 119.403,164.643 119.043 C 164.903 118.682,165.592 117.774,166.176 117.023 C 166.759 116.273,167.820 114.896,168.533 113.962 C 171.185 110.491,175.817 104.559,177.725 102.191 C 178.179 101.627,179.293 100.243,180.200 99.114 C 186.384 91.419,191.873 85.790,199.293 79.533 C 203.831 75.706,209.436 71.995,211.079 71.728 C 212.173 71.550,212.122 71.874,210.902 72.847 C 207.735 75.372,198.370 85.094,196.156 88.156 C 195.734 88.739,194.692 90.171,193.841 91.338 C 192.989 92.504,192.174 93.724,192.029 94.048 C 191.884 94.372,191.200 95.472,190.511 96.492 C 189.821 97.512,189.043 98.731,188.782 99.202 C 188.521 99.674,187.887 100.695,187.372 101.473 C 186.858 102.251,186.214 103.365,185.941 103.948 C 185.669 104.532,185.307 105.168,185.138 105.363 C 184.853 105.690,182.866 109.131,181.190 112.198 C 180.801 112.911,180.154 114.093,179.752 114.826 C 179.350 115.558,178.245 117.573,177.296 119.304 C 176.346 121.035,174.660 124.202,173.548 126.341 C 169.611 133.915,166.787 139.065,164.889 142.133 C 160.866 148.637,157.457 152.705,153.816 155.349 C 152.770 156.108,151.599 156.999,151.212 157.328 C 150.825 157.657,150.336 157.926,150.125 157.926 C 149.915 157.926,149.117 158.270,148.354 158.692 C 146.743 159.580,144.070 159.708,139.305 159.126 C 133.723 158.443,130.149 160.144,132.584 162.324 C 133.192 162.868,136.177 163.314,137.242 163.020 C 137.534 162.940,138.732 162.771,139.904 162.646 C 141.076 162.521,142.508 162.242,143.086 162.026 C 144.657 161.440,151.116 161.542,153.016 162.182 C 154.737 162.762,160.506 162.835,162.606 162.303 C 163.338 162.118,164.944 161.850,166.176 161.707 C 167.607 161.540,168.840 161.242,169.593 160.881 C 170.242 160.569,171.196 160.188,171.715 160.033 C 172.233 159.878,172.819 159.612,173.015 159.441 C 173.212 159.270,173.796 158.939,174.314 158.705 C 174.831 158.471,175.678 157.967,176.195 157.586 C 176.713 157.204,177.597 156.568,178.161 156.171 C 179.516 155.218,184.727 150.035,186.786 147.592 C 188.946 145.028,188.970 145.039,189.995 149.135 C 190.455 150.976,191.000 152.673,191.204 152.906 C 191.408 153.139,191.737 153.648,191.934 154.037 C 192.459 155.071,195.336 157.844,196.700 158.631 C 199.153 160.045,202.290 161.440,203.364 161.593 C 203.977 161.681,205.221 162.010,206.128 162.325 C 209.519 163.501,219.527 163.661,224.396 162.616 C 225.628 162.352,227.590 161.933,228.757 161.685 C 232.693 160.851,239.802 158.155,242.781 156.368 C 243.105 156.173,243.742 155.850,244.196 155.648 C 245.850 154.913,251.601 151.292,253.297 149.917 C 253.700 149.590,254.655 148.846,255.418 148.264 C 257.273 146.850,261.238 143.009,262.355 141.544 C 262.850 140.896,263.681 139.813,264.203 139.138 C 264.724 138.463,265.321 137.614,265.529 137.252 C 265.737 136.890,266.323 135.958,266.831 135.180 C 268.508 132.615,270.543 129.218,271.774 126.930 C 272.122 126.282,272.776 125.115,273.227 124.337 C 273.677 123.559,274.197 122.658,274.383 122.334 C 275.406 120.546,275.927 120.407,279.346 121.010 C 282.104 121.496,282.094 121.475,280.756 124.012 C 277.887 129.453,275.661 132.343,273.609 133.289 C 271.539 134.244,272.461 135.753,274.857 135.331 C 278.305 134.724,282.230 130.826,284.906 125.354 C 286.419 122.260,287.103 121.636,289.013 121.615 C 291.558 121.587,294.611 121.002,295.527 120.367 C 296.024 120.023,296.610 119.741,296.829 119.741 C 298.221 119.741,300.624 116.014,300.484 114.075 C 300.264 111.039,298.791 109.959,294.869 109.959 C 290.057 109.959,286.607 112.394,283.754 117.804 C 283.134 118.981,282.670 119.156,280.710 118.951 C 276.786 118.541,276.652 117.258,280.007 112.232 C 280.210 111.927,280.642 111.220,280.966 110.661 C 287.453 99.475,294.618 90.579,301.288 85.434 C 304.110 83.256,305.158 82.499,305.347 82.499 C 305.443 82.499,305.963 82.184,306.502 81.800 C 307.393 81.166,310.045 80.263,310.402 80.473 C 310.482 80.520,311.821 80.737,313.377 80.954 C 314.932 81.172,316.949 81.554,317.859 81.803 C 318.769 82.053,320.625 82.365,321.984 82.498 C 323.343 82.631,325.250 82.893,326.223 83.081 C 332.950 84.378,349.020 84.523,353.034 83.322 C 353.714 83.119,355.244 82.744,356.433 82.490 C 357.623 82.236,358.817 81.885,359.086 81.710 C 359.355 81.535,360.000 81.258,360.519 81.094 C 364.301 79.900,366.783 76.780,366.170 73.989 C 365.998 73.205,364.315 71.184,363.835 71.184 C 363.683 71.184,363.138 70.875,362.624 70.498 C 362.040 70.068,361.162 69.715,360.279 69.555 C 359.503 69.414,358.295 69.081,357.594 68.814 C 354.295 67.560,340.771 67.562,336.240 68.818 C 335.333 69.070,333.583 69.392,332.351 69.535 C 330.949 69.697,329.671 70.003,328.932 70.351 C 328.283 70.658,326.979 71.015,326.036 71.146 C 325.092 71.277,323.963 71.595,323.526 71.852 C 323.090 72.109,322.133 72.445,321.399 72.597 C 320.665 72.749,319.475 73.144,318.754 73.474 C 317.287 74.146,315.733 74.131,313.734 73.425 C 313.156 73.221,311.672 72.893,310.437 72.696 C 309.202 72.499,307.531 72.136,306.724 71.889 C 305.917 71.642,304.326 71.321,303.188 71.177 C 302.051 71.032,300.268 70.660,299.227 70.350 C 298.185 70.040,296.362 69.676,295.174 69.542 C 293.986 69.407,292.754 69.198,292.436 69.077 C 290.193 68.225,287.251 68.006,278.256 68.022 C 269.004 68.039,267.845 68.131,263.887 69.167 C 261.505 69.790,260.886 69.502,258.960 66.879 C 258.208 65.855,256.204 64.258,254.601 63.406 C 253.991 63.082,253.230 62.639,252.910 62.422 C 252.590 62.205,251.744 61.865,251.031 61.667 C 250.318 61.469,249.098 61.070,248.321 60.780 C 246.763 60.200,230.590 59.887,226.072 60.349 M244.196 61.293 C 244.505 61.499,244.499 61.559,244.148 61.766 C 242.517 62.729,242.696 63.175,245.138 64.230 C 246.966 65.019,248.822 66.391,251.381 68.844 C 254.170 71.517,254.752 71.892,256.114 71.892 C 257.087 71.892,257.126 72.066,256.301 72.724 C 255.852 73.082,255.658 73.480,255.608 74.147 C 255.569 74.657,255.531 75.106,255.524 75.145 C 255.516 75.184,255.159 74.948,254.730 74.620 C 254.300 74.293,253.398 73.898,252.723 73.742 C 251.516 73.464,251.499 73.447,251.636 72.716 C 252.123 70.119,243.011 65.343,236.535 64.802 C 230.224 64.275,227.148 64.604,224.358 66.106 C 223.277 66.688,221.783 67.450,221.037 67.799 C 220.292 68.148,219.682 68.519,219.682 68.624 C 219.682 68.838,218.428 69.534,218.044 69.534 C 217.619 69.534,217.772 68.765,218.312 68.191 C 219.074 67.380,218.555 66.921,217.497 67.470 C 217.078 67.687,216.311 67.932,215.793 68.015 C 215.274 68.097,214.563 68.366,214.212 68.613 C 213.861 68.860,212.988 69.281,212.272 69.549 C 211.555 69.817,210.903 70.144,210.821 70.276 C 210.740 70.408,210.212 70.714,209.648 70.956 C 208.448 71.470,204.419 74.076,202.411 75.636 C 200.462 77.150,199.629 77.791,198.549 78.610 C 193.608 82.354,183.429 92.958,177.961 100.057 C 177.637 100.478,176.447 101.976,175.317 103.387 C 172.084 107.422,170.748 109.135,169.551 110.784 C 168.939 111.626,167.919 112.925,167.285 113.670 C 166.650 114.415,165.290 116.165,164.261 117.559 C 163.233 118.954,161.840 120.715,161.166 121.474 C 160.492 122.234,159.739 123.188,159.493 123.596 C 158.283 125.595,155.333 128.728,155.333 128.014 C 155.333 127.798,156.767 125.758,157.669 124.691 C 158.141 124.131,160.436 120.931,163.819 116.115 C 164.661 114.915,165.775 113.368,166.293 112.678 C 166.812 111.987,167.820 110.606,168.533 109.609 C 169.246 108.611,170.491 106.903,171.299 105.813 C 172.819 103.763,176.113 99.291,177.953 96.781 C 178.532 95.991,179.645 94.592,180.428 93.671 C 181.210 92.751,182.747 90.842,183.843 89.429 C 186.590 85.886,196.044 76.450,199.220 74.080 C 199.779 73.664,200.903 72.815,201.718 72.195 C 203.515 70.826,205.522 69.502,206.968 68.731 C 207.560 68.415,208.178 67.995,208.342 67.798 C 208.506 67.600,209.154 67.268,209.782 67.060 C 210.410 66.851,211.047 66.532,211.197 66.352 C 211.347 66.171,211.859 65.900,212.335 65.749 C 212.810 65.598,213.641 65.223,214.180 64.915 C 214.719 64.606,215.739 64.203,216.446 64.019 C 217.153 63.835,218.165 63.463,218.695 63.193 C 219.224 62.923,220.751 62.541,222.086 62.344 C 223.421 62.147,225.309 61.787,226.282 61.542 C 228.309 61.033,243.491 60.821,244.196 61.293 M127.020 65.691 C 127.765 68.195,127.854 69.255,127.449 70.843 C 127.253 71.614,127.018 72.882,126.927 73.659 C 126.836 74.437,126.518 75.501,126.219 76.022 C 125.920 76.544,125.519 77.572,125.327 78.306 C 125.135 79.041,124.769 79.940,124.514 80.304 C 124.258 80.668,123.914 81.391,123.749 81.909 C 123.584 82.428,123.198 83.286,122.891 83.815 C 122.110 85.166,121.335 89.024,121.533 90.584 L 121.688 91.809 120.955 91.122 C 119.255 89.527,119.004 83.605,120.495 80.259 C 120.957 79.222,121.408 78.062,121.497 77.681 C 121.585 77.300,121.856 76.710,122.097 76.371 C 122.339 76.031,122.723 75.282,122.950 74.707 C 123.178 74.131,123.550 73.394,123.777 73.070 C 124.004 72.746,124.310 72.021,124.455 71.458 C 124.601 70.895,124.933 70.027,125.193 69.529 C 125.687 68.580,126.092 66.379,126.100 64.596 C 126.106 63.232,126.388 63.567,127.020 65.691 M250.156 63.970 C 250.906 64.146,251.701 64.445,251.923 64.634 C 252.146 64.822,252.821 65.257,253.423 65.601 C 256.091 67.123,257.911 69.823,256.704 70.469 C 255.594 71.063,255.048 70.789,252.588 68.400 C 251.278 67.128,249.649 65.633,248.969 65.078 C 247.218 63.650,247.536 63.353,250.156 63.970 M236.787 65.985 C 241.573 67.024,242.487 67.292,244.582 68.271 C 247.995 69.866,250.088 71.350,250.088 72.174 C 250.088 72.272,249.691 72.554,249.204 72.801 C 248.718 73.049,247.900 73.475,247.387 73.750 C 246.873 74.024,246.299 74.249,246.111 74.249 C 245.923 74.249,245.282 74.556,244.688 74.931 C 244.093 75.306,243.344 75.692,243.023 75.788 C 242.702 75.885,241.946 76.294,241.344 76.698 C 240.179 77.478,239.060 78.165,238.079 78.704 C 237.748 78.885,237.129 79.336,236.704 79.705 C 236.278 80.075,235.837 80.377,235.724 80.377 C 235.611 80.377,235.058 80.744,234.495 81.193 C 233.932 81.642,233.013 82.358,232.453 82.784 C 231.893 83.210,231.098 83.891,230.685 84.296 C 230.273 84.702,229.066 85.790,228.003 86.715 C 225.760 88.666,219.262 96.105,218.509 97.584 C 218.344 97.908,218.013 98.388,217.775 98.651 C 217.536 98.914,217.179 99.587,216.982 100.146 C 216.785 100.705,216.366 101.469,216.051 101.843 C 215.736 102.217,215.404 102.866,215.311 103.285 C 215.219 103.705,214.894 104.426,214.588 104.887 C 214.255 105.391,213.900 106.487,213.701 107.628 C 213.518 108.673,213.174 109.891,212.936 110.333 C 212.592 110.972,212.485 111.799,212.417 114.355 C 212.244 120.820,214.800 125.326,220.120 127.936 L 222.392 129.051 226.517 129.038 C 228.786 129.031,231.067 128.911,231.585 128.771 C 241.946 125.978,248.956 120.983,256.494 111.019 C 263.921 101.204,267.654 86.246,264.697 78.149 C 263.834 75.785,263.436 73.744,263.792 73.504 C 264.441 73.066,273.368 73.551,277.077 74.226 C 277.855 74.368,279.711 74.595,281.202 74.731 C 282.693 74.866,285.008 75.238,286.346 75.556 C 287.685 75.874,289.714 76.240,290.856 76.369 C 291.998 76.498,293.612 76.814,294.443 77.071 C 295.274 77.327,297.116 77.699,298.537 77.897 C 303.107 78.535,306.190 79.798,304.616 80.389 C 304.248 80.527,303.577 80.884,303.123 81.183 C 302.669 81.482,301.450 82.230,300.412 82.845 C 292.780 87.373,285.381 94.071,277.491 103.595 C 275.876 105.543,274.622 107.133,274.131 107.852 C 273.936 108.137,273.120 109.258,272.317 110.343 C 271.514 111.428,270.554 112.740,270.182 113.259 C 268.440 115.692,268.125 116.041,267.390 116.348 C 266.957 116.529,266.179 116.676,265.662 116.676 C 265.144 116.676,264.183 116.888,263.528 117.146 C 262.872 117.405,261.743 117.686,261.020 117.771 C 260.221 117.865,259.460 118.122,259.080 118.426 C 258.737 118.701,258.048 119.112,257.550 119.340 C 254.706 120.640,251.935 124.620,253.348 125.376 C 253.923 125.684,255.164 124.932,255.700 123.951 C 256.245 122.954,257.506 121.621,258.449 121.044 C 258.879 120.781,259.497 120.374,259.823 120.140 C 260.658 119.541,264.518 119.059,265.036 119.489 C 265.700 120.039,265.527 120.432,262.919 124.307 C 262.668 124.680,262.198 125.384,261.874 125.871 C 259.609 129.277,255.640 134.722,253.051 137.975 C 247.665 144.743,240.368 151.724,236.029 154.258 C 235.270 154.701,234.384 155.266,234.060 155.513 C 233.419 156.002,229.337 157.926,228.940 157.926 C 228.806 157.926,228.126 158.183,227.430 158.498 C 222.615 160.675,210.816 161.672,206.718 160.248 C 205.745 159.910,204.454 159.562,203.847 159.475 C 203.240 159.388,202.482 159.110,202.162 158.859 C 201.843 158.607,201.091 158.191,200.493 157.935 C 196.034 156.023,192.693 151.890,192.693 148.283 C 192.693 145.852,192.952 145.396,193.583 146.717 C 194.394 148.419,196.944 149.145,198.939 148.243 C 201.382 147.139,202.322 145.643,202.335 142.840 C 202.352 139.170,201.160 137.908,197.454 137.674 C 195.042 137.521,195.124 137.608,195.533 135.620 C 195.973 133.481,193.926 134.640,192.361 137.416 C 192.178 137.740,191.301 138.854,190.413 139.892 C 188.574 142.040,188.246 142.430,185.947 145.197 C 183.528 148.109,177.045 154.595,176.032 155.116 C 175.555 155.361,175.100 155.666,175.021 155.794 C 174.942 155.922,174.382 156.246,173.776 156.514 C 173.170 156.782,172.512 157.146,172.313 157.324 C 172.113 157.501,171.473 157.773,170.890 157.927 C 170.306 158.082,169.246 158.452,168.533 158.749 C 165.953 159.826,153.977 160.443,153.080 159.545 C 152.725 159.190,152.857 159.080,154.817 158.092 C 155.983 157.503,157.505 156.642,158.198 156.178 C 163.855 152.388,164.288 152.041,168.071 148.264 C 172.064 144.279,174.871 140.801,177.776 136.240 C 178.313 135.398,179.104 134.177,179.535 133.528 C 179.966 132.878,180.318 132.252,180.318 132.136 C 180.318 132.019,180.568 131.596,180.873 131.195 C 181.417 130.479,183.095 127.474,185.340 123.196 C 185.963 122.008,186.712 120.666,187.006 120.212 C 187.299 119.758,187.725 118.916,187.952 118.340 C 188.179 117.764,188.570 117.005,188.820 116.654 C 189.070 116.302,189.275 115.949,189.275 115.868 C 189.275 115.721,190.987 112.068,191.988 110.077 C 192.282 109.493,192.601 108.751,192.697 108.427 C 192.794 108.103,193.065 107.564,193.301 107.229 C 193.537 106.894,193.955 106.046,194.231 105.343 C 194.877 103.698,198.996 95.436,199.595 94.583 C 199.847 94.224,200.278 93.453,200.553 92.870 C 200.828 92.286,201.418 91.173,201.864 90.395 C 202.310 89.617,202.946 88.484,203.278 87.878 C 203.609 87.271,203.990 86.707,204.125 86.623 C 204.259 86.540,204.631 85.976,204.951 85.369 C 205.789 83.779,211.065 77.567,213.435 75.382 C 215.132 73.816,217.503 71.787,218.425 71.112 C 221.283 69.017,221.916 68.592,222.181 68.592 C 222.342 68.592,222.802 68.316,223.203 67.978 C 223.604 67.641,224.646 67.102,225.519 66.781 C 226.392 66.460,227.478 66.051,227.932 65.873 C 229.225 65.364,234.220 65.427,236.787 65.985 M165.939 66.293 C 165.937 66.890,164.997 68.120,164.543 68.120 C 163.740 68.120,163.740 67.634,164.545 66.803 C 165.340 65.983,165.941 65.764,165.939 66.293 M285.077 69.080 C 285.863 69.220,287.301 69.480,288.273 69.659 C 289.246 69.838,291.172 70.092,292.555 70.224 C 293.937 70.356,295.687 70.677,296.444 70.937 C 297.201 71.197,298.933 71.569,300.295 71.764 C 301.656 71.959,303.443 72.333,304.265 72.595 C 305.088 72.857,306.520 73.139,307.447 73.223 C 308.375 73.307,310.088 73.692,311.255 74.079 C 313.113 74.694,313.768 74.790,316.524 74.848 C 319.554 74.912,319.696 74.938,320.315 75.531 C 320.840 76.034,321.427 76.227,323.531 76.587 C 324.947 76.829,326.423 77.153,326.812 77.307 C 327.201 77.461,328.967 77.733,330.736 77.912 C 332.505 78.090,334.778 78.453,335.786 78.717 C 340.510 79.954,356.559 79.970,360.083 78.741 C 361.220 78.345,362.287 78.020,362.454 78.020 C 363.655 78.020,361.155 79.761,359.003 80.424 C 358.151 80.686,357.148 81.059,356.773 81.252 C 356.398 81.444,354.701 81.816,353.002 82.076 C 351.302 82.337,349.328 82.656,348.615 82.786 C 346.609 83.150,337.468 83.287,335.298 82.986 C 329.782 82.220,328.247 82.042,325.987 81.909 C 324.626 81.829,322.186 81.460,320.566 81.090 C 318.945 80.720,316.798 80.351,315.795 80.270 C 314.792 80.189,313.519 79.956,312.966 79.754 C 311.091 79.065,310.354 78.969,309.016 79.238 C 307.756 79.491,307.676 79.474,306.187 78.667 C 304.573 77.791,303.285 77.436,300.767 77.176 C 299.924 77.089,298.411 76.771,297.404 76.469 C 296.397 76.168,294.911 75.856,294.103 75.775 C 292.102 75.577,290.314 75.235,288.627 74.729 C 287.849 74.495,286.099 74.226,284.738 74.129 C 283.377 74.033,281.255 73.704,280.024 73.398 C 277.822 72.850,274.577 72.605,265.325 72.284 L 262.530 72.187 262.061 72.982 C 261.487 73.955,261.544 73.955,260.674 72.964 C 260.281 72.516,259.754 72.085,259.502 72.005 C 259.175 71.901,259.046 71.647,259.049 71.110 C 259.055 69.820,259.332 69.615,260.413 70.103 C 261.446 70.568,265.052 70.351,268.169 69.635 C 268.973 69.450,270.140 69.288,270.761 69.275 C 271.383 69.262,272.157 69.167,272.481 69.063 C 273.372 68.778,283.446 68.791,285.077 69.080 M356.629 70.893 C 357.472 71.167,358.817 71.506,359.618 71.648 C 361.249 71.937,363.709 73.275,363.986 74.022 C 364.638 75.785,362.401 77.038,356.176 78.397 C 354.313 78.803,346.890 78.744,342.487 78.288 C 336.978 77.716,333.323 77.219,330.112 76.602 C 328.167 76.229,326.046 75.860,325.398 75.783 C 322.212 75.402,322.073 75.255,323.813 74.097 C 324.600 73.573,325.341 73.307,326.341 73.189 C 327.118 73.097,328.391 72.783,329.169 72.492 C 329.992 72.183,331.716 71.843,333.294 71.677 C 334.785 71.520,336.641 71.224,337.419 71.020 C 340.927 70.097,353.910 70.012,356.629 70.893 M162.100 72.422 C 161.930 73.151,160.869 75.769,160.167 77.195 C 159.847 77.843,159.468 78.851,159.324 79.434 C 159.179 80.018,158.868 80.813,158.631 81.202 C 158.395 81.591,158.027 82.582,157.815 83.405 C 157.603 84.227,157.231 85.406,156.987 86.024 C 156.743 86.642,156.422 87.819,156.273 88.641 C 156.124 89.462,155.792 90.545,155.536 91.049 C 155.279 91.552,154.921 92.804,154.740 93.831 C 154.560 94.858,154.195 96.190,153.929 96.790 C 153.664 97.390,153.340 98.551,153.209 99.368 C 153.078 100.186,152.754 101.363,152.488 101.984 C 152.222 102.604,151.848 103.857,151.657 104.767 C 151.465 105.678,151.107 106.847,150.861 107.366 C 150.614 107.885,150.291 108.998,150.143 109.841 C 149.994 110.684,149.665 111.710,149.412 112.122 C 149.159 112.534,148.807 113.542,148.631 114.361 C 148.454 115.181,148.043 116.435,147.718 117.148 C 147.392 117.861,147.051 118.922,146.961 119.505 C 146.871 120.088,146.607 120.884,146.374 121.273 C 146.141 121.662,145.718 122.768,145.433 123.732 C 145.149 124.696,144.776 125.703,144.605 125.971 C 144.435 126.239,144.138 126.995,143.948 127.650 C 143.757 128.305,143.329 129.366,142.998 130.007 C 142.667 130.648,142.321 131.491,142.230 131.880 C 142.139 132.269,141.866 132.872,141.622 133.220 C 141.379 133.567,141.026 134.290,140.837 134.826 C 140.648 135.362,140.275 136.107,140.008 136.481 C 139.741 136.856,139.407 137.495,139.265 137.902 C 139.124 138.309,138.677 139.143,138.272 139.756 C 137.868 140.369,137.272 141.320,136.948 141.869 C 134.853 145.419,130.923 150.134,127.974 152.637 C 125.514 154.723,124.839 154.927,125.878 153.270 C 126.263 152.655,126.764 151.845,126.990 151.470 C 127.216 151.096,127.758 150.248,128.194 149.585 C 128.629 148.922,129.083 148.127,129.201 147.818 C 129.320 147.510,129.612 146.979,129.851 146.640 C 130.090 146.300,130.365 145.757,130.462 145.433 C 130.559 145.109,130.940 144.207,131.308 143.430 C 132.141 141.674,133.115 139.289,133.572 137.890 C 133.763 137.307,134.173 136.246,134.484 135.533 C 134.795 134.820,135.162 133.787,135.300 133.238 C 135.437 132.688,135.797 131.734,136.100 131.116 C 136.402 130.499,136.775 129.476,136.928 128.843 C 137.081 128.210,137.399 127.308,137.634 126.839 C 137.869 126.371,138.197 125.404,138.362 124.691 C 138.527 123.978,138.898 122.917,139.187 122.334 C 139.475 121.750,139.847 120.689,140.012 119.976 C 140.177 119.263,140.510 118.286,140.752 117.804 C 140.994 117.321,141.335 116.313,141.510 115.564 C 141.685 114.814,142.044 113.776,142.307 113.258 C 142.570 112.740,142.916 111.679,143.076 110.902 C 143.236 110.124,143.558 109.110,143.792 108.648 C 144.027 108.187,144.394 107.132,144.608 106.305 C 144.822 105.478,145.186 104.424,145.416 103.962 C 145.647 103.501,145.961 102.606,146.116 101.975 C 146.271 101.343,146.658 100.312,146.976 99.684 C 147.294 99.056,147.555 98.338,147.555 98.087 C 147.555 97.837,147.854 97.063,148.220 96.368 C 148.585 95.672,149.016 94.574,149.176 93.928 C 149.336 93.281,149.713 92.377,150.014 91.918 C 150.314 91.459,150.636 90.717,150.729 90.268 C 150.822 89.819,151.150 89.081,151.456 88.627 C 151.763 88.173,152.180 87.330,152.383 86.753 C 152.586 86.176,152.900 85.540,153.079 85.339 C 153.259 85.138,153.689 84.390,154.035 83.677 C 155.091 81.500,155.887 80.087,156.869 78.648 C 157.385 77.891,158.073 76.823,158.397 76.275 C 159.921 73.697,162.406 71.111,162.100 72.422 M214.496 72.289 C 214.496 72.378,213.619 73.359,212.548 74.469 C 208.229 78.945,204.292 83.851,202.605 86.859 C 202.387 87.248,201.798 88.256,201.295 89.098 C 200.793 89.941,200.051 91.267,199.647 92.045 C 198.854 93.569,198.213 94.733,197.245 96.405 C 196.907 96.989,196.553 97.731,196.456 98.055 C 196.360 98.379,196.091 98.889,195.857 99.188 C 195.624 99.487,195.261 100.248,195.052 100.879 C 194.842 101.510,194.523 102.149,194.342 102.299 C 194.161 102.449,193.896 102.961,193.753 103.437 C 193.610 103.912,192.824 105.681,192.006 107.366 C 191.189 109.051,190.073 111.385,189.527 112.552 C 188.981 113.718,188.417 114.885,188.273 115.144 C 188.130 115.404,187.380 116.836,186.607 118.326 C 184.854 121.705,183.661 123.959,182.738 125.633 C 182.345 126.346,181.684 127.566,181.268 128.344 C 180.853 129.122,180.375 129.918,180.207 130.112 C 180.039 130.306,179.684 130.890,179.418 131.408 C 178.904 132.409,176.876 135.609,175.566 137.485 C 174.778 138.614,174.120 139.499,171.482 142.981 C 170.033 144.893,165.806 149.283,164.306 150.434 C 159.587 154.056,156.983 155.629,156.983 154.858 C 156.983 154.709,157.923 153.508,159.072 152.190 C 160.921 150.068,163.306 146.826,164.622 144.646 C 164.869 144.236,165.644 143.019,166.343 141.941 C 167.042 140.862,167.722 139.696,167.854 139.348 C 167.986 139.001,168.246 138.548,168.433 138.342 C 168.619 138.136,169.093 137.341,169.486 136.574 C 169.878 135.807,170.354 134.915,170.543 134.590 C 170.732 134.266,171.052 133.630,171.255 133.176 C 171.458 132.722,171.978 131.715,172.411 130.937 C 172.843 130.159,173.884 128.197,174.725 126.576 C 175.565 124.956,176.600 122.994,177.025 122.216 C 178.583 119.365,179.599 117.474,180.189 116.323 C 180.522 115.675,181.263 114.349,181.836 113.377 C 182.410 112.404,183.479 110.548,184.212 109.252 C 184.946 107.955,185.955 106.205,186.455 105.362 C 186.955 104.520,187.613 103.351,187.918 102.766 C 188.223 102.181,188.690 101.385,188.956 100.998 C 189.431 100.308,190.392 98.817,191.951 96.349 C 192.964 94.746,194.799 92.006,195.469 91.097 C 195.757 90.705,196.564 89.600,197.263 88.640 C 201.358 83.013,214.496 70.547,214.496 72.289 M259.690 73.498 C 259.957 73.668,260.388 74.747,261.308 77.549 C 262.205 80.279,261.914 87.534,260.824 89.636 C 260.404 90.445,260.224 91.163,260.224 92.031 C 260.224 93.292,259.851 94.755,259.529 94.755 C 259.432 94.755,259.352 91.441,259.351 87.390 C 259.349 79.299,259.506 80.444,257.734 75.589 C 257.162 74.021,257.113 73.715,257.406 73.530 C 257.825 73.265,259.291 73.244,259.690 73.498 M253.200 74.974 C 253.787 75.249,254.948 76.707,255.629 78.022 C 255.863 78.475,256.244 79.110,256.476 79.434 C 257.536 80.916,257.979 88.068,257.243 91.814 C 256.793 94.104,257.053 94.887,258.349 95.147 C 258.732 95.223,259.045 95.373,259.045 95.480 C 259.045 96.435,258.306 98.562,257.331 100.412 C 256.682 101.644,255.930 103.076,255.660 103.595 C 252.355 109.941,243.758 119.311,238.068 122.769 C 233.945 125.275,229.981 126.587,226.038 126.753 L 223.319 126.867 221.441 125.978 C 218.314 124.499,216.789 122.858,215.272 119.340 C 214.071 116.553,213.956 112.071,215.028 109.837 C 215.369 109.126,215.721 108.014,215.810 107.366 C 215.952 106.326,216.256 105.589,217.757 102.652 C 217.956 102.263,218.372 101.433,218.682 100.807 C 218.992 100.182,219.447 99.468,219.694 99.222 C 219.941 98.975,220.303 98.426,220.500 98.002 C 221.120 96.667,224.795 92.414,227.454 89.955 C 228.033 89.419,229.199 88.291,230.045 87.448 C 230.890 86.606,231.870 85.704,232.222 85.445 C 232.575 85.186,233.496 84.476,234.270 83.869 C 235.044 83.261,235.984 82.605,236.359 82.411 C 236.734 82.217,237.186 81.884,237.362 81.671 C 237.657 81.316,238.117 81.037,240.939 79.504 C 241.466 79.218,242.074 78.823,242.292 78.626 C 242.509 78.429,243.139 78.108,243.693 77.913 C 244.246 77.718,244.984 77.355,245.333 77.107 C 245.682 76.858,246.444 76.526,247.025 76.370 C 247.606 76.213,248.479 75.883,248.964 75.635 C 250.558 74.822,252.298 74.551,253.200 74.974 M263.213 77.448 C 263.567 79.151,263.600 80.303,263.299 80.488 C 263.024 80.658,262.678 79.346,262.471 77.347 C 262.268 75.378,262.797 75.450,263.213 77.448 M264.387 83.342 C 264.785 84.659,264.767 86.582,264.338 88.627 C 264.134 89.599,263.866 90.872,263.743 91.456 C 263.620 92.039,263.417 93.336,263.292 94.338 C 263.156 95.431,262.827 96.630,262.470 97.336 C 262.142 97.982,261.874 98.718,261.874 98.971 C 261.874 99.224,261.518 100.102,261.083 100.923 C 260.648 101.744,260.208 102.681,260.106 103.005 C 260.004 103.329,259.670 103.923,259.365 104.324 C 259.060 104.725,258.810 105.160,258.810 105.291 C 258.810 105.511,257.441 107.725,256.170 109.564 C 251.579 116.200,242.608 123.936,237.922 125.298 C 236.598 125.683,235.947 125.562,236.728 125.075 C 243.408 120.917,247.615 116.933,253.066 109.605 C 254.808 107.262,257.444 103.058,257.866 101.948 C 258.001 101.591,258.315 101.042,258.562 100.727 C 258.810 100.412,259.086 99.815,259.176 99.400 C 259.266 98.984,259.607 98.114,259.935 97.466 C 260.263 96.818,260.719 95.598,260.948 94.755 C 261.177 93.913,261.574 92.640,261.830 91.927 C 262.108 91.152,262.393 89.445,262.537 87.684 C 262.922 82.998,263.719 81.128,264.387 83.342 M297.306 86.948 C 297.243 87.191,296.219 88.385,295.030 89.602 C 293.842 90.819,292.228 92.556,291.444 93.462 C 290.143 94.965,289.438 95.881,287.181 98.998 C 286.759 99.582,286.139 100.430,285.804 100.884 C 284.495 102.659,281.370 107.588,280.358 109.476 C 280.014 110.118,279.552 110.913,279.332 111.244 C 279.112 111.574,278.606 112.335,278.207 112.936 C 277.807 113.536,277.406 114.278,277.314 114.586 C 277.223 114.893,276.903 115.516,276.604 115.969 C 276.305 116.423,275.990 117.232,275.905 117.767 C 275.804 118.398,275.506 118.973,275.059 119.401 C 274.404 120.029,272.481 122.986,272.481 123.365 C 272.481 123.463,272.229 123.881,271.921 124.294 C 271.613 124.707,271.236 125.433,271.084 125.909 C 270.931 126.385,270.645 126.909,270.447 127.073 C 270.249 127.237,269.817 127.904,269.488 128.554 C 269.159 129.204,268.702 130.006,268.474 130.336 C 268.246 130.667,267.559 131.786,266.947 132.823 C 262.744 139.947,258.332 144.870,252.210 149.265 C 251.367 149.870,250.409 150.570,250.082 150.820 C 249.507 151.259,248.824 151.670,246.553 152.941 C 245.969 153.268,245.174 153.766,244.785 154.048 C 244.396 154.330,243.728 154.678,243.301 154.820 C 242.874 154.963,242.218 155.298,241.844 155.565 C 241.469 155.832,240.710 156.210,240.157 156.405 C 239.604 156.600,238.970 156.923,238.749 157.124 C 238.528 157.324,237.733 157.648,236.982 157.844 C 236.232 158.040,235.135 158.444,234.544 158.742 C 233.954 159.039,232.998 159.362,232.420 159.458 C 231.842 159.555,230.728 159.875,229.945 160.169 C 228.284 160.794,225.475 161.166,225.244 160.791 C 225.109 160.574,226.419 160.052,227.110 160.048 C 227.242 160.048,227.772 159.820,228.289 159.543 C 228.805 159.266,229.789 158.846,230.475 158.610 C 231.160 158.374,232.009 157.976,232.360 157.727 C 232.712 157.477,233.371 157.099,233.824 156.888 C 235.117 156.284,237.746 154.578,240.542 152.528 C 242.207 151.308,250.426 143.134,252.107 141.028 C 252.747 140.226,253.642 139.075,254.095 138.471 C 254.549 137.867,255.380 136.805,255.941 136.111 C 257.624 134.032,260.869 129.404,264.445 123.984 C 265.086 123.011,265.829 121.936,266.095 121.594 C 266.680 120.845,267.060 119.896,267.060 119.186 C 267.060 118.865,267.527 118.209,268.266 117.493 C 268.929 116.849,269.857 115.753,270.328 115.057 C 271.624 113.142,271.807 112.888,272.952 111.404 C 273.536 110.649,274.278 109.642,274.602 109.166 C 275.586 107.721,276.526 106.508,278.098 104.655 C 278.922 103.683,280.303 102.054,281.166 101.036 C 283.466 98.320,289.403 92.349,290.631 91.517 C 291.214 91.122,291.956 90.509,292.280 90.155 C 293.920 88.366,297.540 86.056,297.306 86.948 M138.975 99.812 C 138.892 100.142,138.720 100.412,138.593 100.412 C 138.290 100.412,138.300 100.026,138.617 99.434 C 138.948 98.814,139.167 99.045,138.975 99.812 M137.562 102.200 C 137.483 102.405,137.419 102.654,137.419 102.754 C 137.419 102.855,137.154 103.223,136.830 103.572 C 136.506 103.922,136.240 104.394,136.240 104.621 C 136.240 104.848,135.909 105.558,135.503 106.197 C 135.098 106.836,134.632 107.732,134.468 108.188 C 134.304 108.643,133.840 109.637,133.437 110.395 C 133.034 111.154,132.705 111.910,132.705 112.075 C 132.705 112.241,132.544 112.510,132.347 112.673 C 132.150 112.837,131.449 114.043,130.790 115.354 C 130.130 116.665,129.455 117.896,129.289 118.091 C 129.123 118.285,128.704 118.975,128.357 119.623 C 128.010 120.271,127.315 121.491,126.812 122.334 C 126.309 123.176,125.613 124.391,125.266 125.033 C 124.919 125.675,124.449 126.470,124.221 126.801 C 123.994 127.131,123.372 128.091,122.839 128.933 C 117.590 137.237,110.064 145.497,103.477 150.184 C 102.764 150.691,101.756 151.423,101.237 151.810 C 100.719 152.197,99.870 152.736,99.352 153.007 C 98.833 153.278,98.197 153.688,97.938 153.917 C 97.324 154.460,93.882 156.215,93.047 156.411 C 91.987 156.659,92.286 156.105,93.560 155.459 C 94.199 155.135,94.787 154.765,94.867 154.636 C 94.946 154.507,95.935 153.767,97.064 152.992 C 100.961 150.313,111.239 140.404,113.980 136.680 C 114.533 135.929,118.040 131.488,118.962 130.372 C 119.325 129.932,120.016 128.977,120.497 128.251 C 120.978 127.524,121.644 126.559,121.978 126.105 C 122.312 125.651,122.986 124.643,123.476 123.866 C 123.966 123.088,124.956 121.550,125.674 120.448 C 126.393 119.346,127.209 118.020,127.487 117.501 C 127.765 116.983,128.191 116.293,128.433 115.969 C 128.676 115.645,129.154 114.903,129.497 114.319 C 130.442 112.709,130.619 112.416,131.458 111.078 C 132.750 109.017,133.930 107.184,134.632 106.149 C 134.998 105.609,135.298 105.069,135.298 104.948 C 135.298 104.827,135.514 104.533,135.778 104.294 C 136.042 104.055,136.460 103.402,136.707 102.843 C 137.118 101.915,137.896 101.329,137.562 102.200 M290.866 112.349 C 290.866 112.431,290.298 113.147,289.604 113.940 C 288.910 114.732,288.153 115.751,287.921 116.205 C 287.689 116.659,287.296 117.292,287.046 117.611 C 286.683 118.077,286.623 118.411,286.744 119.289 C 286.884 120.305,286.843 120.427,286.195 120.947 C 285.617 121.412,283.324 125.580,283.324 126.168 C 283.324 127.210,278.032 132.940,277.070 132.940 C 276.678 132.940,276.605 132.570,276.955 132.354 C 277.342 132.115,278.962 129.510,281.501 125.044 C 282.861 122.653,282.956 122.242,282.492 120.751 C 282.358 120.319,282.467 120.163,283.124 119.850 C 283.610 119.618,284.256 118.950,284.785 118.133 C 286.821 114.989,287.735 113.877,288.960 113.055 C 290.148 112.257,290.866 111.991,290.866 112.349 M297.682 113.318 C 298.210 113.933,298.642 114.587,298.643 114.770 C 298.646 115.396,297.170 117.403,296.433 117.775 C 296.029 117.979,295.462 118.362,295.173 118.626 C 294.487 119.253,289.158 119.537,288.431 118.985 C 287.386 118.193,290.540 114.087,293.236 112.732 C 295.123 111.783,296.525 111.968,297.682 113.318 M235.366 126.325 C 235.281 126.463,234.878 126.576,234.470 126.576 C 233.623 126.576,233.841 126.195,234.767 126.057 C 235.473 125.951,235.571 125.994,235.366 126.325 M57.825 138.817 C 58.143 138.938,58.787 139.374,59.255 139.785 L 60.106 140.532 60.106 142.819 C 60.106 145.378,59.867 145.917,58.110 147.313 C 55.679 149.245,53.478 148.406,53.060 145.387 C 52.820 143.648,52.465 143.076,51.626 143.076 C 50.711 143.076,50.633 142.871,51.132 141.769 C 52.117 139.593,55.704 138.011,57.825 138.817 M200.071 139.503 C 202.775 141.645,201.195 146.895,197.745 147.234 C 195.728 147.432,194.628 146.959,194.375 145.786 C 193.825 143.236,193.683 142.963,192.868 142.884 C 192.339 142.833,192.056 142.925,191.959 143.179 C 191.881 143.382,191.723 143.547,191.607 143.547 C 191.319 143.547,191.340 142.667,191.632 142.487 C 191.762 142.407,191.868 141.939,191.868 141.447 C 191.868 140.568,191.893 140.543,193.459 139.881 C 194.334 139.511,195.315 139.066,195.639 138.891 C 196.728 138.305,198.945 138.612,200.071 139.503 M141.721 160.431 C 142.194 160.568,142.279 160.983,141.839 161.005 C 141.676 161.013,140.748 161.122,139.776 161.247 C 135.003 161.862,133.513 161.752,133.695 160.797 C 133.818 160.148,139.806 159.875,141.721 160.431 " stroke="none" fill="#6c6c6c" fill-rule="evenodd"/></g></svg>
