<svg xmlns="http://www.w3.org/2000/svg" xmlns:xlink="http://www.w3.org/1999/xlink" id="svg" version="1.1" width="400" height="253.33333333333334" viewBox="0, 0, 400,253.33333333333334"><g id="svgg">
  <path id="path0" d="M201.068 52.652 C 190.838 63.105,156.031 109.403,145.152 127.029 C 140.726 134.200,136.763 139.726,136.345 139.308 C 134.519 137.482,146.170 108.258,158.111 84.715 C 174.331 52.736,174.542 43.575,158.894 50.704 C 135.920 61.172,58.233 188.010,68.504 198.282 C 73.648 203.426,78.674 196.723,96.667 160.716 C 111.412 131.207,136.371 88.889,139.030 88.889 C 139.410 88.889,136.652 95.639,132.901 103.889 C 113.689 146.142,112.528 170.139,129.907 165.778 C 134.049 164.738,142.932 153.027,165.493 118.863 C 182.029 93.822,195.904 73.333,196.325 73.333 C 196.747 73.333,188.224 91.083,177.385 112.778 C 150.818 165.952,144.822 192.531,158.788 195.220 C 164.749 196.368,168.889 189.659,168.889 178.853 C 168.889 161.796,186.771 118.090,211.252 75.309 C 227.712 46.545,221.208 32.074,201.068 52.652 M283.849 50.186 C 258.922 54.693,250.302 58.682,251.867 64.988 C 252.779 68.666,249.275 75.917,238.706 92.222 C 212.058 133.337,193.883 175.551,199.201 183.982 C 204.846 192.932,209.359 188.447,218.862 164.444 C 236.694 119.403,237.222 118.911,271.111 115.779 C 284.681 114.525,285.556 114.108,285.556 108.889 C 285.556 103.382,285.395 103.337,267.222 103.704 C 257.139 103.908,248.889 103.613,248.889 103.048 C 248.889 101.117,270.578 69.875,273.625 67.417 C 277.840 64.017,298.055 60.000,310.948 60.000 C 323.283 60.000,329.141 55.659,324.444 50.000 C 321.013 45.866,307.402 45.928,283.849 50.186 " stroke="none" fill="#000000" fill-rule="evenodd"/></g></svg>
